<svg width="22" height="22" viewBox="0 0 22 22" fill="none" xmlns="http://www.w3.org/2000/svg">
<path d="M4.86579 9.69565C4.86579 9.97179 5.08965 10.1957 5.36579 10.1957C5.64194 10.1957 5.86579 9.97179 5.86579 9.69565H4.86579ZM11.8223 8.82609C11.8223 9.10223 12.0462 9.32609 12.3223 9.32609C12.5985 9.32609 12.8223 9.10223 12.8223 8.82609H11.8223ZM4.49623 14.413C4.22009 14.413 3.99623 14.6369 3.99623 14.913C3.99623 15.1892 4.22009 15.413 4.49623 15.413V14.413ZM1.14163 16.5365L0.642733 16.5032L1.14163 16.5365ZM1.77931 6.97127L2.2782 7.00453L1.77931 6.97127ZM15.9088 6.97127L16.4077 6.93801L15.9088 6.97127ZM5.86579 9.69565V4.47826H4.86579V9.69565H5.86579ZM11.8223 4.47826V8.82609H12.8223V4.47826H11.8223ZM8.84406 1.5C9.82496 1.5 10.5574 1.82295 11.0453 2.32817C11.5359 2.83617 11.8223 3.57338 11.8223 4.47826H12.8223C12.8223 3.36105 12.4654 2.35913 11.7647 1.63352C11.0613 0.905135 10.0546 0.5 8.84406 0.5V1.5ZM8.84406 0.5C7.63347 0.5 6.62682 0.905135 5.92344 1.63352C5.22275 2.35913 4.86579 3.36105 4.86579 4.47826H5.86579C5.86579 3.57338 6.15223 2.83617 6.64279 2.32817C7.13067 1.82295 7.86315 1.5 8.84406 1.5V0.5ZM4.49623 15.413H8.84406V14.413H4.49623V15.413ZM3.51459 5.84783H14.1735V4.84783H3.51459V5.84783ZM1.64052 16.5697L2.2782 7.00453L1.28041 6.93801L0.642733 16.5032L1.64052 16.5697ZM15.4099 7.00453L15.5336 8.85935L16.5314 8.79283L16.4077 6.93801L15.4099 7.00453ZM9.71362 17.8913H2.8769V18.8913H9.71362V17.8913ZM0.642733 16.5032C0.556574 17.7956 1.58165 18.8913 2.8769 18.8913V17.8913C2.16011 17.8913 1.59284 17.285 1.64052 16.5697L0.642733 16.5032ZM14.1735 5.84783C14.8259 5.84783 15.3665 6.35362 15.4099 7.00453L16.4077 6.93801C16.3293 5.7618 15.3524 4.84783 14.1735 4.84783V5.84783ZM3.51459 4.84783C2.33576 4.84783 1.35883 5.7618 1.28041 6.93801L2.2782 7.00453C2.32159 6.35362 2.86223 5.84783 3.51459 5.84783V4.84783ZM20.518 14.913C20.518 17.9986 18.0166 20.5 14.931 20.5V21.5C18.5689 21.5 21.518 18.5509 21.518 14.913H20.518ZM14.931 20.5C11.8454 20.5 9.34406 17.9986 9.34406 14.913H8.34406C8.34406 18.5509 11.2931 21.5 14.931 21.5V20.5ZM9.34406 14.913C9.34406 11.8275 11.8454 9.32609 14.931 9.32609V8.32609C11.2931 8.32609 8.34406 11.2752 8.34406 14.913H9.34406ZM14.931 9.32609C18.0166 9.32609 20.518 11.8275 20.518 14.913H21.518C21.518 11.2752 18.5689 8.32609 14.931 8.32609V9.32609Z" fill="#26A155"/>
<path d="M12.3 14.5L14.5737 16.6L17.7 13" stroke="#26A155" stroke-linecap="round" stroke-linejoin="round"/>
</svg>
