<?xml version="1.0" encoding="utf-8"?>
<!-- Generator: Adobe Illustrator 19.2.1, SVG Export Plug-In . SVG Version: 6.00 Build 0)  -->
<svg version="1.1" id="Слой_1" xmlns="http://www.w3.org/2000/svg" xmlns:xlink="http://www.w3.org/1999/xlink" x="0px" y="0px"
	 viewBox="0 0 20 9" style="enable-background:new 0 0 20 9;" xml:space="preserve">
<style type="text/css">
	.st0{fill:#FFFFFF;}
</style>
<path d="M4.4,8.1c-0.1,0-0.1,0-0.2-0.1L0.8,4.6c0,0,0-0.1-0.1-0.1c0,0,0,0,0,0l0,0c0,0,0-0.1,0-0.1c0,0,0,0,0,0c0,0,0,0,0,0c0,0,0,0,0,0c0,0,0,0,0,0c0,0,0,0,0,0c0,0,0-0.1,0-0.1l0,0c0,0,0,0,0,0c0,0,0-0.1,0.1-0.1c0,0,0,0,0,0l3.4-3.4c0.1-0.1,0.3-0.1,0.4,0s0.1,0.3,0,0.4l-3,3H19c0.1,0,0.3,0.1,0.3,0.3S19.1,4.7,19,4.7H1.6l3,3c0.1,0.1,0.1,0.3,0,0.4C4.6,8.1,4.5,8.1,4.4,8.1z"/>
</svg>
