<?xml version="1.0" encoding="utf-8"?>
<!-- Generator: Adobe Illustrator 19.2.1, SVG Export Plug-In . SVG Version: 6.00 Build 0)  -->
<svg version="1.1" id="Слой_1" xmlns="http://www.w3.org/2000/svg" xmlns:xlink="http://www.w3.org/1999/xlink" x="0px" y="0px"
	 viewBox="0 0 21 21" style="enable-background:new 0 0 21 21;" xml:space="preserve">
<style type="text/css">
	.st0{fill:#0D0F0F;}
</style>
<path d="M6.4,10.5c0,0.3,0.2,0.5,0.5,0.5c0.3,0,0.5-0.2,0.5-0.5H6.4z M13.6,10.5c0,0.3,0.2,0.5,0.5,0.5c0.3,0,0.5-0.2,0.5-0.5H13.6z M6,15.4c-0.3,0-0.5,0.2-0.5,0.5c0,0.3,0.2,0.5,0.5,0.5V15.4z M15,16.4c0.3,0,0.5-0.2,0.5-0.5c0-0.3-0.2-0.5-0.5-0.5V16.4z M17.8,7.7l0.5,0L17.8,7.7z M18.5,17.6l0.5,0L18.5,17.6z M2.5,17.6l-0.5,0l0,0L2.5,17.6z M3.2,7.7l0.5,0L3.2,7.7z M7.4,10.5V5.1h-1v5.4H7.4z M13.6,5.1v5.4h1V5.1H13.6z M10.5,2c1,0,1.8,0.3,2.3,0.9c0.5,0.5,0.8,1.3,0.8,2.2h1c0-1.2-0.4-2.2-1.1-2.9c-0.7-0.7-1.8-1.2-3-1.2V2z M10.5,1c-1.2,0-2.3,0.4-3,1.2C6.8,2.9,6.4,3.9,6.4,5.1h1c0-0.9,0.3-1.7,0.8-2.2C8.7,2.3,9.5,2,10.5,2V1z M6,16.4h9v-1H6V16.4z M5,6.5h11v-1H5V6.5z M17.3,7.7l0.7,9.9l1-0.1l-0.7-9.9L17.3,7.7z M16.7,19H4.3v1h12.4V19z M3,17.6l0.7-9.9l-1-0.1L2,17.5L3,17.6z M4.3,19C3.6,19,3,18.4,3,17.6l-1-0.1C1.9,18.9,3,20,4.3,20V19z M18,17.6c0.1,0.8-0.5,1.4-1.3,1.4v1c1.3,0,2.4-1.1,2.3-2.5L18,17.6z M16,6.5c0.7,0,1.3,0.5,1.3,1.2l1-0.1c-0.1-1.2-1.1-2.1-2.3-2.1V6.5z M5,5.5c-1.2,0-2.2,0.9-2.3,2.1l1,0.1C3.7,7,4.3,6.5,5,6.5V5.5z"/>
</svg>
