<svg width="1296" height="466" viewBox="0 0 1296 466" fill="none" xmlns="http://www.w3.org/2000/svg">
<path d="M1.38916 446.582V439.356C1.38916 438.969 1.32238 438.969 0 438.969V438.871H10.116V438.969C8.80694 438.969 8.7446 438.969 8.7446 439.356V446.582C8.7446 446.987 8.81139 446.987 10.116 446.987V447.084H5.94847V446.987C7.04822 446.987 7.11056 446.987 7.11056 446.582V439.356C7.11056 438.969 7.04822 438.969 5.94847 438.969H4.1853C3.08554 438.969 3.02321 438.969 3.02321 439.356V446.582C3.02321 446.987 3.09 446.987 4.1853 446.987V447.084H0V446.987C1.32238 446.987 1.38916 446.987 1.38916 446.582Z" fill="white"/>
<path d="M15.0944 447.147C16.9199 447.147 17.5165 445.209 17.5165 442.969C17.5165 440.729 16.9199 438.809 15.0944 438.809C13.2689 438.809 12.6856 440.729 12.6856 442.969C12.6856 445.209 13.2689 447.147 15.0944 447.147ZM10.9893 442.969C10.9893 440.422 12.5387 438.711 15.0944 438.711C17.6457 438.711 19.2174 440.422 19.2174 442.969C19.2174 445.515 17.6501 447.244 15.0944 447.244C12.5387 447.244 10.9893 445.515 10.9893 442.969Z" fill="white"/>
<path d="M24.609 446.986C25.918 446.986 25.9848 446.986 25.9848 446.582V439.355C25.9848 438.968 25.918 438.968 24.8227 438.968H23.6918C22.543 438.968 22.4629 438.968 22.4495 439.355C22.2091 444.711 21.8351 446.564 21.0292 446.982H24.609V446.986ZM19.5198 449.808H19.4219L19.5822 446.986H20.6018C21.6214 446.986 22.0399 445.488 22.3293 439.359C22.3605 438.973 22.2982 438.973 20.811 438.973V438.875H29.0035V438.973C27.6767 438.973 27.6144 438.973 27.6144 439.359V446.586C27.6144 446.991 27.6767 446.991 29.0035 446.991L29.1638 449.813H29.0659C28.9546 448.266 27.8726 447.088 26.3989 447.088H22.3249C20.7175 447.079 19.6178 448.257 19.5198 449.808Z" fill="white"/>
<path d="M33.0145 446.564C34.1632 446.564 35.116 445.387 35.116 444.08H31.9504C31.7233 444.355 31.5452 444.791 31.5452 445.24C31.5452 446.067 32.1106 446.564 33.0145 446.564ZM33.0278 443.987H35.1116V441.969C35.1116 440.387 34.2389 439.373 32.8319 439.373C31.5897 439.373 30.5211 440.098 30.5211 441.613C30.5256 443 31.5763 443.987 33.0278 443.987ZM29.9111 445.338C29.9111 444.791 30.1694 444.258 30.5567 443.982H32.2531C31.1534 443.707 30.4276 442.804 30.4276 441.613C30.4276 439.933 31.6075 438.711 33.6601 438.711C35.4233 438.711 36.7456 439.858 36.7456 441.778V445.084C36.7456 446.195 37.084 446.569 37.6183 446.569C38.215 446.569 38.491 445.973 38.491 444.858H38.589C38.589 446.213 38.2506 447.244 36.7323 447.244C35.8418 447.244 35.116 446.747 35.116 445.502V444.871C34.7777 446.195 33.6467 447.244 32.222 447.244C30.7526 447.244 29.9111 446.564 29.9111 445.338Z" fill="white"/>
<path d="M43.9363 446.969C45.6015 446.969 46.3451 445.209 46.3451 442.969C46.3451 440.729 45.6015 438.986 43.9363 438.986C42.2711 438.986 41.5275 440.729 41.5275 442.969C41.532 445.209 42.2711 446.969 43.9363 446.969ZM39.898 449.986V439.355C39.898 438.969 39.8312 438.969 38.5088 438.969V438.871H41.532V441.386C41.7902 439.724 42.6807 438.711 44.4394 438.711C46.7814 438.711 48.0593 440.422 48.0593 442.969C48.0593 445.515 46.7814 447.244 44.4394 447.244C42.6763 447.244 41.7902 446.226 41.532 444.569V449.986C41.532 450.373 41.5988 450.373 43.1482 450.373V450.471H38.5088V450.373C39.8312 450.373 39.898 450.373 39.898 449.986Z" fill="white"/>
<path d="M50.2417 446.582V439.356C50.2417 438.969 50.1749 438.969 48.8525 438.969V438.871H52.8776V438.969C51.9425 438.969 51.8758 438.969 51.8758 439.356V443.662L54.85 440.436C55.6603 439.551 55.4333 438.969 53.8304 438.969V438.871H57.6907V438.969C56.6577 438.969 55.785 439.551 54.9301 440.484L53.8794 441.631L56.5953 445.747C57.3879 446.956 57.419 446.987 58.4387 446.987V447.084H54.3647V446.987C55.3843 446.987 55.4644 446.987 55.1884 446.582L52.7173 442.907L51.8758 443.809V446.582C51.8758 446.987 51.9425 446.987 53.1358 446.987V447.084H48.8525V446.987C50.1749 446.987 50.2417 446.987 50.2417 446.582Z" fill="white"/>
<path d="M60.3257 446.582V439.356C60.3257 438.969 60.2589 438.969 58.9365 438.969V438.871H63.1218V438.969C62.0221 438.969 61.9597 438.969 61.9597 439.356V445.871L66.0471 439.889V439.356C66.0471 438.969 65.9847 438.969 64.885 438.969V438.871H69.0525V438.969C67.7435 438.969 67.6811 438.969 67.6811 439.356V446.582C67.6811 446.987 67.7479 446.987 69.0525 446.987V447.084H64.885V446.987C65.9847 446.987 66.0471 446.987 66.0471 446.582V440.084L61.9597 446.067V446.582C61.9597 446.987 62.0265 446.987 63.1218 446.987V447.084H58.9365V446.987C60.2589 446.987 60.3257 446.987 60.3257 446.582Z" fill="white"/>
<path d="M1.39795 462.111V454.889C1.39795 454.502 1.33117 454.502 0.00878906 454.502V454.404H10.1247V454.502C8.81573 454.502 8.75339 454.502 8.75339 454.889V462.115C8.75339 462.52 8.82018 462.52 10.1247 462.52V462.618H5.95726V462.52C7.05701 462.52 7.11934 462.52 7.11934 462.115V454.889C7.11934 454.502 7.05701 454.502 5.95726 454.502H4.19409C3.09433 454.502 3.032 454.502 3.032 454.889V462.115C3.032 462.52 3.09879 462.52 4.19409 462.52V462.618H0.00878906V462.52C1.33562 462.515 1.39795 462.515 1.39795 462.111Z" fill="white"/>
<path d="M16.1355 462.502C17.8008 462.502 18.5443 460.742 18.5443 458.502C18.5443 456.262 17.8008 454.52 16.1355 454.52C14.4703 454.52 13.7268 456.262 13.7268 458.502C13.7312 460.742 14.4703 462.502 16.1355 462.502ZM12.0972 465.516V454.889C12.0972 454.502 12.0304 454.502 10.708 454.502V454.405H13.7312V456.92C13.9895 455.258 14.88 454.24 16.6387 454.24C18.9807 454.24 20.2585 455.951 20.2585 458.498C20.2585 461.045 18.9807 462.774 16.6387 462.774C14.8755 462.774 13.9895 461.756 13.7312 460.098V465.516C13.7312 465.902 13.798 465.902 15.3475 465.902V466H10.708V465.902C12.0304 465.902 12.0972 465.902 12.0972 465.516Z" fill="white"/>
<path d="M25.8468 462.676C27.6723 462.676 28.2689 460.738 28.2689 458.498C28.2689 456.258 27.6723 454.338 25.8468 454.338C24.0213 454.338 23.438 456.258 23.438 458.498C23.438 460.738 24.0213 462.676 25.8468 462.676ZM21.7461 458.498C21.7461 455.951 23.2955 454.24 25.8513 454.24C28.4025 454.24 29.9742 455.951 29.9742 458.498C29.9742 461.045 28.407 462.774 25.8513 462.774C23.2955 462.774 21.7461 461.049 21.7461 458.498Z" fill="white"/>
<path d="M31.457 458.498C31.457 455.951 33.0065 454.24 35.3974 454.24C37.4678 454.24 38.434 455.498 38.434 456.418C38.434 456.965 38.0466 457.369 37.4812 457.369C36.9469 457.369 36.5773 457 36.5773 456.467C36.5773 455.854 37.0448 455.742 37.0448 455.449C37.0448 455.031 36.4972 454.338 35.3974 454.338C33.7322 454.338 33.1534 456.191 33.1534 458.209C33.1534 460.498 34.1062 462.094 36.141 462.094C37.5969 462.094 38.5008 461.125 38.6923 459.467H38.7902C38.5988 461.209 37.548 462.774 35.3307 462.774C32.864 462.774 31.457 461.049 31.457 458.498Z" fill="white"/>
<path d="M42.7029 462.111V454.889C42.7029 454.502 42.6361 454.502 41.8302 454.502H41.5897C40.5568 454.502 39.6663 455.92 39.555 457.453H39.457L39.6485 454.404H47.3868L47.5649 457.453H47.467C47.3557 455.92 46.4652 454.502 45.4456 454.502H45.2051C44.3948 454.502 44.3325 454.502 44.3325 454.889V462.115C44.3325 462.52 44.3992 462.52 46.0288 462.52V462.618H40.9887V462.52C42.6405 462.515 42.7029 462.515 42.7029 462.111Z" fill="white"/>
<path d="M52.53 462.676C54.3555 462.676 54.9521 460.738 54.9521 458.498C54.9521 456.258 54.3555 454.338 52.53 454.338C50.7045 454.338 50.1212 456.258 50.1212 458.498C50.1212 460.738 50.7045 462.676 52.53 462.676ZM48.4248 458.498C48.4248 455.951 49.9743 454.24 52.53 454.24C55.0857 454.24 56.6485 455.951 56.6485 458.498C56.6485 461.045 55.0812 462.774 52.53 462.774C49.9787 462.774 48.4248 461.049 48.4248 458.498Z" fill="white"/>
<path d="M21.3405 415.732L0.645508 432.132L1.70964 433.452L22.4046 417.052L21.3405 415.732Z" fill="white"/>
<path d="M36.9422 424.681C33.2155 423.832 30.3036 420.948 29.4443 417.259C29.4265 417.174 29.3063 417.174 29.284 417.259C28.4247 420.948 25.5128 423.832 21.7861 424.681C21.7015 424.699 21.7015 424.819 21.7861 424.836C25.5128 425.685 28.4247 428.57 29.284 432.259C29.3018 432.343 29.422 432.343 29.4443 432.259C30.3036 428.57 33.2155 425.685 36.9422 424.836C37.0268 424.819 37.0268 424.699 36.9422 424.681Z" fill="white"/>
<path d="M21.7861 409.538C25.5128 410.387 28.4247 413.271 29.284 416.96C29.3018 417.044 29.422 417.044 29.4443 416.96C30.3036 413.271 33.2155 410.387 36.9422 409.538C37.0268 409.52 37.0268 409.4 36.9422 409.382C33.2155 408.533 30.3036 405.649 29.4443 401.96C29.4265 401.875 29.3063 401.875 29.284 401.96C28.4247 405.649 25.5128 408.533 21.7861 409.382C21.7015 409.4 21.7015 409.52 21.7861 409.538Z" fill="white"/>
<path d="M6.33103 409.538C10.0577 410.387 12.9696 413.271 13.8289 416.96C13.8468 417.044 13.967 417.044 13.9892 416.96C14.8486 413.271 17.7605 410.387 21.4871 409.538C21.5717 409.52 21.5717 409.4 21.4871 409.382C17.7605 408.533 14.8486 405.649 13.9892 401.96C13.9714 401.875 13.8512 401.875 13.8289 401.96C12.9696 405.649 10.0577 408.533 6.33103 409.382C6.24643 409.4 6.24643 409.52 6.33103 409.538Z" fill="white"/>
<path d="M459.924 258.093C360.065 263.098 351.511 126.893 401.806 131.653C441.5 135.409 420.961 230.404 342.749 249.351C228.508 277.022 184.077 191.755 212.159 169.049C280.473 113.813 399.46 375.942 305.678 419.76C222.889 458.44 178.151 326.875 214.256 337.138C240.334 344.547 222.756 452.827 131.899 426.551C42.9391 400.827 106.827 243.044 144.869 265.173C175.199 282.818 111.685 376.111 41.3496 400.809" stroke="white" stroke-miterlimit="10"/>
<path d="M709 225.728C760.615 199.525 760.671 156.047 741.799 156.874C721.396 157.765 730.986 221.634 786.909 224.256C844.63 226.959 879.592 163.094 860.691 150.899C832.277 132.56 769.201 252.689 818.924 269.262C859.189 282.676 875.271 213.95 853.753 216.731C835.778 219.056 866.05 277.235 918 260.235" stroke="white" stroke-miterlimit="10"/>
<path d="M1158 169C1222.93 118.74 1229.46 1 1191.13 1C1140.42 1 1176.47 166.555 1295 159.176" stroke="white" stroke-miterlimit="10"/>
</svg>
