<?xml version="1.0" encoding="utf-8"?>
<!-- Generator: Adobe Illustrator 19.2.1, SVG Export Plug-In . SVG Version: 6.00 Build 0)  -->
<svg version="1.1" id="Слой_1" xmlns="http://www.w3.org/2000/svg" xmlns:xlink="http://www.w3.org/1999/xlink" x="0px" y="0px"
	 viewBox="0 0 21 21" style="enable-background:new 0 0 21 21;" xml:space="preserve">
<style type="text/css">
	.st0{fill:#0D0F0F;}
</style>
<path d="M12.8,14c-0.3-0.1-0.5,0.1-0.6,0.4c-0.1,0.3,0.1,0.5,0.4,0.6L12.8,14z M8.4,14.9c0.3-0.1,0.4-0.3,0.4-0.6c-0.1-0.3-0.3-0.4-0.6-0.4L8.4,14.9z M10.5,15.6v-0.5V15.6z M19,10.5c0,4.7-3.8,8.5-8.5,8.5v1c5.2,0,9.5-4.3,9.5-9.5H19z M10.5,19C5.8,19,2,15.2,2,10.5H1c0,5.2,4.3,9.5,9.5,9.5V19z M2,10.5C2,5.8,5.8,2,10.5,2V1C5.3,1,1,5.3,1,10.5H2z M10.5,2c4.7,0,8.5,3.8,8.5,8.5h1C20,5.3,15.7,1,10.5,1V2z M15.4,17.3v0.4h1v-0.4H15.4z M5.6,17.7v-0.4h-1v0.4H5.6z M12.6,14.9c0.9,0.2,1.6,0.6,2.1,1c0.5,0.4,0.7,0.9,0.7,1.3h1c0-0.8-0.4-1.5-1.1-2.1c-0.6-0.5-1.5-1-2.5-1.2L12.6,14.9z M8.2,14c-1,0.3-1.9,0.7-2.5,1.2c-0.6,0.5-1.1,1.3-1.1,2.1h1c0-0.4,0.2-0.9,0.7-1.3c0.5-0.4,1.2-0.8,2.1-1L8.2,14z M10.5,16.1c1.4,0,2.6-1.1,3.3-2.5c0.8-1.4,1.2-3.4,1.2-5.3h-1c0,1.8-0.4,3.5-1.1,4.8c-0.7,1.3-1.6,2-2.4,2V16.1z M15.1,8.3c0-2.1-2.1-3.7-4.6-3.7v1c2.1,0,3.6,1.3,3.6,2.7H15.1z M10.5,4.6c-2.4,0-4.6,1.6-4.6,3.7h1c0-1.4,1.4-2.7,3.6-2.7V4.6z M5.9,8.3c0,1.9,0.5,3.8,1.2,5.3c0.8,1.4,1.9,2.5,3.3,2.5v-1c-0.9,0-1.7-0.7-2.4-2c-0.7-1.3-1.1-3-1.1-4.8H5.9z"/>
</svg>
