<svg width="100" height="100" viewBox="0 0 100 100" fill="none" xmlns="http://www.w3.org/2000/svg">
<rect x="0.25" y="0.25" width="99.5" height="99.5" stroke="black" stroke-width="0.5"/>
<mask id="path-2-inside-1" fill="white">
<path fill-rule="evenodd" clip-rule="evenodd" d="M55.7791 33.1751H55.7786C54.2274 33.1751 52.8219 32.6892 51.8897 31.8363V36.411C51.9186 36.5564 51.9435 36.7037 51.964 36.8526C52.08 37.6925 52.0498 38.5242 51.8897 39.2898V44.2501L72.9998 47.9754C73.1248 47.9951 73.2433 48.0456 73.3441 48.1225C73.4158 48.1771 73.4785 48.245 73.5282 48.3246L79.8841 58.4941C80.0148 58.7033 80.0363 58.9629 79.9418 59.1905C79.8473 59.4185 79.6482 59.5865 79.4078 59.6417L73.9511 60.8926V74.1527C73.9511 74.5083 73.7054 74.8168 73.3589 74.8962L51.1789 79.981C51.1222 79.9938 51.0652 80.0002 51.0083 80.0002C50.9666 80.0002 50.9251 79.9968 50.8842 79.99L26.6931 76.1773C26.3223 76.1188 26.0491 75.7992 26.0491 75.4238V60.7888L20.6059 59.645C20.3621 59.5937 20.1586 59.4266 20.0609 59.1974C19.9633 58.9681 19.9839 58.7057 20.116 58.4944L26.464 48.3376C26.5761 48.1504 26.7673 48.0123 26.9997 47.9756L50.3642 44.2865V42.0769C49.4324 42.8856 48.0627 43.3447 46.5549 43.3447C44.0363 43.3447 41.7638 42.0819 40.624 40.049C39.3332 37.7466 38.8792 31.2591 38.8605 30.9841C38.8457 30.7643 38.9265 30.5488 39.0822 30.3931C39.2379 30.2374 39.4531 30.1561 39.6732 30.1714C39.9483 30.1901 46.4356 30.6439 48.7381 31.9349C49.3564 32.2815 49.9029 32.7286 50.3642 33.2561V28.6601C50.2773 28.0263 50.2762 27.3573 50.3693 26.6831C50.665 24.5414 51.8408 22.7489 53.5952 21.7654C55.8977 20.4743 62.3851 20.0205 62.6602 20.0018C62.882 19.9865 63.0956 20.0678 63.2511 20.2235C63.407 20.3794 63.4877 20.5947 63.4728 20.8145C63.4542 21.0896 63.0002 27.5771 61.7094 29.8795C60.5698 31.9122 58.2972 33.1751 55.7791 33.1751ZM50.3642 45.8307L31.304 48.8403L50.3642 52.8971V45.8307ZM69.0724 48.8313L51.8897 45.799V52.8257L69.0724 48.8313ZM52.8399 30.6347C52.3518 30.1466 52.0216 29.3971 51.8897 28.5442V27.1188C51.8897 27.0627 51.8836 27.0079 51.8721 26.9552C51.8748 26.934 51.8776 26.9128 51.8805 26.8915C52.1102 25.2273 53.0072 23.8438 54.3413 23.0958C55.7791 22.2896 59.6954 21.7929 61.8798 21.5949C61.682 23.779 61.1856 27.6946 60.379 29.1333C59.3388 30.9885 57.3209 31.6495 55.7791 31.6495H55.7787C54.574 31.6495 53.4753 31.2701 52.8399 30.6347ZM50.3642 36.5708V39.1204C50.2007 39.8033 49.9026 40.3956 49.4937 40.8045C48.8583 41.4399 47.7596 41.8193 46.5549 41.8193C45.0131 41.8193 42.9948 41.1582 41.9546 39.303C41.1485 37.8652 40.6518 33.9488 40.4537 31.7644C42.6377 31.9622 46.5534 32.4586 47.9922 33.2656C49.1928 33.9386 50.0394 35.1266 50.3642 36.5708ZM57.4286 63.1153L52.1972 54.3202L72.5233 49.5949L78.0229 58.394L57.4286 63.1153ZM44.8023 64.7297C44.8547 64.7406 44.9073 64.746 44.9593 64.746C45.2243 64.746 45.4754 64.6074 45.6147 64.3734L50.2456 56.588L50.2457 78.345L27.5746 74.772V61.1094L44.8023 64.7297ZM51.7711 56.5879L51.7711 78.2801L72.4255 73.5451V61.2426L57.2278 64.7266C56.9042 64.8004 56.5711 64.6577 56.4019 64.3731L51.7711 56.5879ZM26.9538 59.4202L21.9883 58.3767L27.4824 49.5862L49.8089 54.3384L44.5825 63.1246L26.9687 59.4232L26.9538 59.4202Z"/>
</mask>
<path fill-rule="evenodd" clip-rule="evenodd" d="M55.7791 33.1751H55.7786C54.2274 33.1751 52.8219 32.6892 51.8897 31.8363V36.411C51.9186 36.5564 51.9435 36.7037 51.964 36.8526C52.08 37.6925 52.0498 38.5242 51.8897 39.2898V44.2501L72.9998 47.9754C73.1248 47.9951 73.2433 48.0456 73.3441 48.1225C73.4158 48.1771 73.4785 48.245 73.5282 48.3246L79.8841 58.4941C80.0148 58.7033 80.0363 58.9629 79.9418 59.1905C79.8473 59.4185 79.6482 59.5865 79.4078 59.6417L73.9511 60.8926V74.1527C73.9511 74.5083 73.7054 74.8168 73.3589 74.8962L51.1789 79.981C51.1222 79.9938 51.0652 80.0002 51.0083 80.0002C50.9666 80.0002 50.9251 79.9968 50.8842 79.99L26.6931 76.1773C26.3223 76.1188 26.0491 75.7992 26.0491 75.4238V60.7888L20.6059 59.645C20.3621 59.5937 20.1586 59.4266 20.0609 59.1974C19.9633 58.9681 19.9839 58.7057 20.116 58.4944L26.464 48.3376C26.5761 48.1504 26.7673 48.0123 26.9997 47.9756L50.3642 44.2865V42.0769C49.4324 42.8856 48.0627 43.3447 46.5549 43.3447C44.0363 43.3447 41.7638 42.0819 40.624 40.049C39.3332 37.7466 38.8792 31.2591 38.8605 30.9841C38.8457 30.7643 38.9265 30.5488 39.0822 30.3931C39.2379 30.2374 39.4531 30.1561 39.6732 30.1714C39.9483 30.1901 46.4356 30.6439 48.7381 31.9349C49.3564 32.2815 49.9029 32.7286 50.3642 33.2561V28.6601C50.2773 28.0263 50.2762 27.3573 50.3693 26.6831C50.665 24.5414 51.8408 22.7489 53.5952 21.7654C55.8977 20.4743 62.3851 20.0205 62.6602 20.0018C62.882 19.9865 63.0956 20.0678 63.2511 20.2235C63.407 20.3794 63.4877 20.5947 63.4728 20.8145C63.4542 21.0896 63.0002 27.5771 61.7094 29.8795C60.5698 31.9122 58.2972 33.1751 55.7791 33.1751ZM50.3642 45.8307L31.304 48.8403L50.3642 52.8971V45.8307ZM69.0724 48.8313L51.8897 45.799V52.8257L69.0724 48.8313ZM52.8399 30.6347C52.3518 30.1466 52.0216 29.3971 51.8897 28.5442V27.1188C51.8897 27.0627 51.8836 27.0079 51.8721 26.9552C51.8748 26.934 51.8776 26.9128 51.8805 26.8915C52.1102 25.2273 53.0072 23.8438 54.3413 23.0958C55.7791 22.2896 59.6954 21.7929 61.8798 21.5949C61.682 23.779 61.1856 27.6946 60.379 29.1333C59.3388 30.9885 57.3209 31.6495 55.7791 31.6495H55.7787C54.574 31.6495 53.4753 31.2701 52.8399 30.6347ZM50.3642 36.5708V39.1204C50.2007 39.8033 49.9026 40.3956 49.4937 40.8045C48.8583 41.4399 47.7596 41.8193 46.5549 41.8193C45.0131 41.8193 42.9948 41.1582 41.9546 39.303C41.1485 37.8652 40.6518 33.9488 40.4537 31.7644C42.6377 31.9622 46.5534 32.4586 47.9922 33.2656C49.1928 33.9386 50.0394 35.1266 50.3642 36.5708ZM57.4286 63.1153L52.1972 54.3202L72.5233 49.5949L78.0229 58.394L57.4286 63.1153ZM44.8023 64.7297C44.8547 64.7406 44.9073 64.746 44.9593 64.746C45.2243 64.746 45.4754 64.6074 45.6147 64.3734L50.2456 56.588L50.2457 78.345L27.5746 74.772V61.1094L44.8023 64.7297ZM51.7711 56.5879L51.7711 78.2801L72.4255 73.5451V61.2426L57.2278 64.7266C56.9042 64.8004 56.5711 64.6577 56.4019 64.3731L51.7711 56.5879ZM26.9538 59.4202L21.9883 58.3767L27.4824 49.5862L49.8089 54.3384L44.5825 63.1246L26.9687 59.4232L26.9538 59.4202Z" fill="black"/>
<path d="M51.8897 31.8363L52.2272 31.4674L51.3897 30.7012V31.8363H51.8897ZM51.8897 36.411H51.3897V36.4604L51.3993 36.5088L51.8897 36.411ZM51.964 36.8526L52.4593 36.7842L52.4593 36.7842L51.964 36.8526ZM51.8897 39.2898L51.4003 39.1874L51.3897 39.2381V39.2898H51.8897ZM51.8897 44.2501H51.3897V44.6695L51.8028 44.7424L51.8897 44.2501ZM72.9998 47.9754L72.9129 48.4678L72.922 48.4693L72.9998 47.9754ZM73.3441 48.1225L73.6472 47.7248L73.6472 47.7248L73.3441 48.1225ZM73.5282 48.3246L73.1041 48.5894L73.1042 48.5896L73.5282 48.3246ZM79.8841 58.4941L80.3082 58.2292L80.3081 58.2291L79.8841 58.4941ZM79.9418 59.1905L80.4037 59.3822L80.4037 59.3821L79.9418 59.1905ZM79.4078 59.6417L79.5195 60.129L79.5196 60.129L79.4078 59.6417ZM73.9511 60.8926L73.8394 60.4053L73.4511 60.4943V60.8926H73.9511ZM73.3589 74.8962L73.4706 75.3836L73.4706 75.3836L73.3589 74.8962ZM51.1789 79.981L51.2894 80.4686L51.2907 80.4683L51.1789 79.981ZM50.8842 79.99L50.9657 79.4967L50.962 79.4961L50.8842 79.99ZM26.6931 76.1773L26.6152 76.6712L26.6153 76.6712L26.6931 76.1773ZM26.0491 60.7888H26.5491V60.383L26.152 60.2995L26.0491 60.7888ZM20.6059 59.645L20.7087 59.1557L20.7087 59.1557L20.6059 59.645ZM20.0609 59.1974L19.6009 59.3932L19.6009 59.3933L20.0609 59.1974ZM20.116 58.4944L20.54 58.7595L20.54 58.7594L20.116 58.4944ZM26.464 48.3376L26.8881 48.6026L26.893 48.5944L26.464 48.3376ZM26.9997 47.9756L26.9218 47.4817L26.9217 47.4817L26.9997 47.9756ZM50.3642 44.2865L50.4422 44.7803L50.8642 44.7137V44.2865H50.3642ZM50.3642 42.0769H50.8642V40.9808L50.0365 41.6993L50.3642 42.0769ZM40.624 40.049L41.0602 39.8045L41.0602 39.8045L40.624 40.049ZM38.8605 30.9841L38.3617 31.0178L38.3617 31.0179L38.8605 30.9841ZM39.0822 30.3931L38.7287 30.0395L38.7287 30.0395L39.0822 30.3931ZM39.6732 30.1714L39.6386 30.6702L39.6393 30.6702L39.6732 30.1714ZM48.7381 31.9349L48.4936 32.371L48.4936 32.371L48.7381 31.9349ZM50.3642 33.2561L49.9879 33.5853L50.8642 34.5872V33.2561H50.3642ZM50.3642 28.6601H50.8642V28.6259L50.8596 28.5921L50.3642 28.6601ZM50.3693 26.6831L50.8646 26.7515L50.8646 26.7515L50.3693 26.6831ZM53.5952 21.7654L53.8397 22.2015L53.8397 22.2015L53.5952 21.7654ZM62.6602 20.0018L62.6941 20.5007L62.6948 20.5006L62.6602 20.0018ZM63.2511 20.2235L62.8974 20.5769L62.8976 20.5771L63.2511 20.2235ZM63.4728 20.8145L63.9717 20.8484L63.9717 20.8483L63.4728 20.8145ZM61.7094 29.8795L62.1456 30.124L62.1456 30.124L61.7094 29.8795ZM50.3642 45.8307H50.8642V45.2456L50.2863 45.3368L50.3642 45.8307ZM31.304 48.8403L31.226 48.3464L31.1999 49.3293L31.304 48.8403ZM50.3642 52.8971L50.2602 53.3861L50.8642 53.5147V52.8971H50.3642ZM69.0724 48.8313L69.1857 49.3183L69.1593 48.3389L69.0724 48.8313ZM51.8897 45.799L51.9766 45.3066L51.3897 45.203V45.799H51.8897ZM51.8897 52.8257H51.3897V53.4552L52.0029 53.3127L51.8897 52.8257ZM51.8897 28.5442H51.3897V28.5826L51.3955 28.6206L51.8897 28.5442ZM52.8399 30.6347L53.1934 30.2811L53.1934 30.2811L52.8399 30.6347ZM51.8721 26.9552L51.3761 26.8922L51.3652 26.9778L51.3836 27.062L51.8721 26.9552ZM51.8805 26.8915L52.3758 26.9599L52.3758 26.9599L51.8805 26.8915ZM54.3413 23.0958L54.5858 23.5319L54.5858 23.5319L54.3413 23.0958ZM61.8798 21.5949L62.3777 21.64L62.4318 21.0428L61.8346 21.0969L61.8798 21.5949ZM60.379 29.1333L60.8151 29.3778L60.8152 29.3778L60.379 29.1333ZM50.3642 39.1204L50.8505 39.2368L50.8642 39.1794V39.1204H50.3642ZM50.3642 36.5708H50.8642V36.5152L50.8521 36.4611L50.3642 36.5708ZM49.4937 40.8045L49.1402 40.4509L49.1402 40.4509L49.4937 40.8045ZM41.9546 39.303L41.5185 39.5475L41.5185 39.5475L41.9546 39.303ZM40.4537 31.7644L40.4988 31.2665L39.9016 31.2124L39.9557 31.8096L40.4537 31.7644ZM47.9922 33.2656L47.7476 33.7017L47.7477 33.7017L47.9922 33.2656ZM52.1972 54.3202L52.084 53.8332L51.4178 53.9881L51.7675 54.5759L52.1972 54.3202ZM57.4286 63.1153L56.9989 63.3709L57.1852 63.6841L57.5403 63.6027L57.4286 63.1153ZM72.5233 49.5949L72.9473 49.3299L72.758 49.027L72.4101 49.1079L72.5233 49.5949ZM78.0229 58.394L78.1346 58.8814L78.819 58.7245L78.4468 58.129L78.0229 58.394ZM44.8023 64.7297L44.6995 65.219L44.7001 65.2192L44.8023 64.7297ZM45.6147 64.3734L46.0443 64.6292L46.0444 64.629L45.6147 64.3734ZM50.2456 56.588L50.7456 56.588L50.7456 54.7694L49.8159 56.3324L50.2456 56.588ZM50.2457 78.345L50.1678 78.8389L50.7457 78.93L50.7457 78.345L50.2457 78.345ZM27.5746 74.772H27.0746V75.1994L27.4967 75.2659L27.5746 74.772ZM27.5746 61.1094L27.6774 60.6201L27.0746 60.4934V61.1094H27.5746ZM51.7711 78.2801L51.2711 78.2801L51.2711 78.9077L51.8828 78.7675L51.7711 78.2801ZM51.7711 56.5879L52.2008 56.3323L51.2711 54.7692L51.2711 56.5879L51.7711 56.5879ZM72.4255 73.5451L72.5373 74.0325L72.9255 73.9434V73.5451H72.4255ZM72.4255 61.2426H72.9255V60.615L72.3138 60.7552L72.4255 61.2426ZM57.2278 64.7266L57.3389 65.2141L57.3395 65.214L57.2278 64.7266ZM56.4019 64.3731L56.8317 64.1176L56.8316 64.1175L56.4019 64.3731ZM21.9883 58.3767L21.5643 58.1117L21.1849 58.7188L21.8855 58.866L21.9883 58.3767ZM26.9538 59.4202L26.8509 59.9095L26.8561 59.9106L26.9538 59.4202ZM27.4824 49.5862L27.5865 49.0972L27.244 49.0243L27.0584 49.3212L27.4824 49.5862ZM49.8089 54.3384L50.2386 54.594L50.5952 53.9946L49.913 53.8494L49.8089 54.3384ZM44.5825 63.1246L44.4797 63.6139L44.8295 63.6874L45.0122 63.3802L44.5825 63.1246ZM26.9687 59.4232L27.0715 58.9338L27.0664 58.9328L26.9687 59.4232ZM55.7786 33.6751H55.7791V32.6751H55.7786V33.6751ZM51.5522 32.2052C52.5959 33.1601 54.1314 33.6751 55.7786 33.6751V32.6751C54.3234 32.6751 53.0479 32.2183 52.2272 31.4674L51.5522 32.2052ZM52.3897 36.411V31.8363H51.3897V36.411H52.3897ZM52.4593 36.7842C52.4374 36.6255 52.4109 36.4685 52.38 36.3133L51.3993 36.5088C51.4263 36.6444 51.4495 36.7819 51.4687 36.921L52.4593 36.7842ZM52.3791 39.3922C52.5513 38.5688 52.5829 37.6792 52.4593 36.7842L51.4687 36.921C51.5771 37.7057 51.5483 38.4797 51.4003 39.1874L52.3791 39.3922ZM52.3897 44.2501V39.2898H51.3897V44.2501H52.3897ZM51.8028 44.7424L72.9129 48.4678L73.0867 47.483L51.9766 43.7577L51.8028 44.7424ZM73.6472 47.7248C73.4803 47.5976 73.2844 47.514 73.0776 47.4815L72.922 48.4693C72.9652 48.4761 73.0063 48.4936 73.041 48.5201L73.6472 47.7248ZM73.9523 48.0598C73.8701 47.9281 73.7661 47.8154 73.6472 47.7248L73.041 48.5201C73.0655 48.5388 73.0869 48.5619 73.1041 48.5894L73.9523 48.0598ZM80.3081 58.2291L73.9522 48.0596L73.1042 48.5896L79.4601 58.7591L80.3081 58.2291ZM80.4037 59.3821C80.5601 59.0051 80.5245 58.5755 80.3082 58.2292L79.46 58.7589C79.5051 58.8311 79.5125 58.9207 79.48 58.999L80.4037 59.3821ZM79.5196 60.129C79.9175 60.0377 80.247 59.7596 80.4037 59.3822L79.48 58.9989C79.4475 59.0774 79.3789 59.1353 79.296 59.1544L79.5196 60.129ZM74.0628 61.38L79.5195 60.129L79.2961 59.1543L73.8394 60.4053L74.0628 61.38ZM74.4511 74.1527V60.8926H73.4511V74.1527H74.4511ZM73.4706 75.3836C74.0444 75.252 74.4511 74.7413 74.4511 74.1527H73.4511C73.4511 74.2753 73.3664 74.3815 73.2471 74.4089L73.4706 75.3836ZM51.2907 80.4683L73.4706 75.3836L73.2471 74.4089L51.0672 79.4936L51.2907 80.4683ZM51.0083 80.5002C51.1026 80.5002 51.1967 80.4896 51.2894 80.4686L51.0685 79.4933C51.0478 79.498 51.0277 79.5002 51.0083 79.5002V80.5002ZM50.8027 80.4833C50.8705 80.4945 50.9393 80.5002 51.0083 80.5002V79.5002C50.994 79.5002 50.9797 79.499 50.9657 79.4967L50.8027 80.4833ZM26.6153 76.6712L50.8063 80.4839L50.962 79.4961L26.771 75.6834L26.6153 76.6712ZM25.5491 75.4238C25.5491 76.0453 26.0014 76.5744 26.6152 76.6712L26.771 75.6834C26.6432 75.6632 26.5491 75.5531 26.5491 75.4238H25.5491ZM25.5491 60.7888V75.4238H26.5491V60.7888H25.5491ZM20.5031 60.1343L25.9463 61.2781L26.152 60.2995L20.7087 59.1557L20.5031 60.1343ZM19.6009 59.3933C19.7626 59.7728 20.0994 60.0495 20.5031 60.1343L20.7087 59.1557C20.6247 59.138 20.5546 59.0804 20.521 59.0014L19.6009 59.3933ZM19.692 58.2294C19.4734 58.5791 19.4393 59.0136 19.6009 59.3932L20.521 59.0015C20.4874 58.9226 20.4944 58.8323 20.54 58.7595L19.692 58.2294ZM26.04 48.0726L19.692 58.2294L20.54 58.7594L26.888 48.6026L26.04 48.0726ZM26.893 48.5944C26.9322 48.5289 26.9978 48.4821 27.0777 48.4695L26.9217 47.4817C26.5368 47.5425 26.2199 47.7718 26.035 48.0808L26.893 48.5944ZM27.0777 48.4695L50.4422 44.7803L50.2863 43.7926L26.9218 47.4817L27.0777 48.4695ZM49.8642 42.0769V44.2865H50.8642V42.0769H49.8642ZM46.5549 43.8447C48.1566 43.8447 49.651 43.358 50.692 42.4545L50.0365 41.6993C49.2138 42.4133 47.9688 42.8447 46.5549 42.8447V43.8447ZM40.1879 40.2935C41.4245 42.4992 43.8733 43.8447 46.5549 43.8447V42.8447C44.1993 42.8447 42.103 41.6646 41.0602 39.8045L40.1879 40.2935ZM38.3617 31.0179C38.3714 31.1608 38.4905 32.8653 38.7702 34.8269C38.91 35.8074 39.091 36.8595 39.3203 37.8165C39.5474 38.7641 39.8305 39.656 40.1879 40.2935L41.0602 39.8045C40.7722 39.2908 40.5144 38.5084 40.2928 37.5835C40.0733 36.6679 39.8976 35.6492 39.7602 34.6857C39.4855 32.7592 39.3684 31.0824 39.3594 30.9502L38.3617 31.0179ZM38.7287 30.0395C38.4709 30.2973 38.337 30.654 38.3617 31.0178L39.3594 30.9503C39.3543 30.8745 39.3821 30.8003 39.4358 30.7466L38.7287 30.0395ZM39.7078 29.6726C39.3425 29.6473 38.986 29.7822 38.7287 30.0395L39.4358 30.7466C39.4899 30.6925 39.5638 30.665 39.6386 30.6702L39.7078 29.6726ZM48.9827 31.4988C48.3451 31.1413 47.4532 30.8582 46.5056 30.6311C45.5486 30.4018 44.4965 30.2208 43.516 30.081C41.5544 29.8014 39.8499 29.6822 39.7071 29.6725L39.6393 30.6702C39.7716 30.6792 41.4483 30.7964 43.3748 31.071C44.3383 31.2084 45.357 31.3841 46.2725 31.6036C47.1975 31.8252 47.9799 32.083 48.4936 32.371L48.9827 31.4988ZM50.7406 32.9269C50.2424 32.3574 49.6516 31.8738 48.9827 31.4988L48.4936 32.371C49.0613 32.6893 49.5633 33.0999 49.9879 33.5853L50.7406 32.9269ZM49.8642 28.6601V33.2561H50.8642V28.6601H49.8642ZM49.874 26.6147C49.7748 27.3334 49.7756 28.0483 49.8689 28.728L50.8596 28.5921C50.779 28.0043 50.7777 27.3812 50.8646 26.7515L49.874 26.6147ZM53.3507 21.3292C51.4483 22.3957 50.1892 24.3314 49.874 26.6147L50.8646 26.7515C51.1408 24.7514 52.2334 23.102 53.8397 22.2015L53.3507 21.3292ZM62.6263 19.503C62.4835 19.5127 60.779 19.6318 58.8174 19.9115C57.8368 20.0513 56.7848 20.2322 55.8278 20.4616C54.8801 20.6887 53.9882 20.9718 53.3507 21.3292L53.8397 22.2015C54.3535 21.9134 55.1359 21.6557 56.0608 21.434C56.9764 21.2146 57.9951 21.0388 58.9585 20.9015C60.885 20.6268 62.5618 20.5097 62.6941 20.5007L62.6263 19.503ZM63.6048 19.8701C63.348 19.6131 62.9932 19.4776 62.6256 19.503L62.6948 20.5006C62.7708 20.4954 62.8431 20.5226 62.8974 20.5769L63.6048 19.8701ZM63.9717 20.8483C63.9963 20.4845 63.8627 20.128 63.6047 19.87L62.8976 20.5771C62.9513 20.6308 62.9791 20.7049 62.974 20.7808L63.9717 20.8483ZM62.1456 30.124C62.503 29.4865 62.786 28.5946 63.0131 27.647C63.2424 26.69 63.4234 25.6379 63.5632 24.6573C63.8428 22.6957 63.962 20.9912 63.9717 20.8484L62.974 20.7806C62.965 20.9129 62.8478 22.5897 62.5732 24.5162C62.4358 25.4797 62.2601 26.4984 62.0407 27.4139C61.819 28.3388 61.5613 29.1213 61.2733 29.635L62.1456 30.124ZM55.7791 33.6751C58.4602 33.6751 60.9091 32.3295 62.1456 30.124L61.2733 29.635C60.2306 31.4949 58.1342 32.6751 55.7791 32.6751V33.6751ZM50.2863 45.3368L31.226 48.3464L31.382 49.3341L50.4422 46.3246L50.2863 45.3368ZM50.4683 52.408L31.4081 48.3512L31.1999 49.3293L50.2602 53.3861L50.4683 52.408ZM49.8642 45.8307V52.8971H50.8642V45.8307H49.8642ZM69.1593 48.3389L51.9766 45.3066L51.8028 46.2914L68.9856 49.3236L69.1593 48.3389ZM52.3897 52.8257V45.799H51.3897V52.8257H52.3897ZM68.9592 48.3442L51.7764 52.3387L52.0029 53.3127L69.1857 49.3183L68.9592 48.3442ZM51.3955 28.6206C51.5384 29.5445 51.902 30.404 52.4863 30.9882L53.1934 30.2811C52.8016 29.8893 52.5047 29.2497 52.3838 28.4678L51.3955 28.6206ZM51.3897 27.1188V28.5442H52.3897V27.1188H51.3897ZM51.3836 27.062C51.3875 27.0799 51.3897 27.0988 51.3897 27.1188H52.3897C52.3897 27.0265 52.3797 26.936 52.3605 26.8484L51.3836 27.062ZM51.3852 26.8232C51.382 26.8462 51.379 26.8692 51.3761 26.8922L52.3681 27.0182C52.3706 26.9988 52.3731 26.9793 52.3758 26.9599L51.3852 26.8232ZM54.0968 22.6597C52.6113 23.4925 51.6339 25.0214 51.3852 26.8232L52.3758 26.9599C52.5865 25.4332 53.403 24.195 54.5858 23.5319L54.0968 22.6597ZM61.8346 21.0969C60.7341 21.1967 59.1944 21.3719 57.7447 21.6247C56.3209 21.873 54.9004 22.209 54.0967 22.6597L54.5858 23.5319C55.22 23.1763 56.4765 22.861 57.9165 22.6099C59.3304 22.3633 60.8411 22.1911 61.9249 22.0929L61.8346 21.0969ZM60.8152 29.3778C61.266 28.5737 61.602 27.1532 61.8503 25.7295C62.103 24.2799 62.2781 22.7404 62.3777 21.64L61.3818 21.5498C61.2837 22.6335 61.1117 24.1439 60.8651 25.5577C60.6141 26.9975 60.2987 28.2542 59.9429 28.8888L60.8152 29.3778ZM55.7791 32.1495C57.4338 32.1495 59.6576 31.4423 60.8151 29.3778L59.9429 28.8887C59.02 30.5346 57.208 31.1495 55.7791 31.1495V32.1495ZM55.7787 32.1495H55.7791V31.1495H55.7787V32.1495ZM52.4863 30.9882C53.244 31.7459 54.488 32.1495 55.7787 32.1495V31.1495C54.66 31.1495 53.7066 30.7943 53.1934 30.2811L52.4863 30.9882ZM50.8642 39.1204V36.5708H49.8642V39.1204H50.8642ZM49.8473 41.158C50.3379 40.6674 50.6717 39.9837 50.8505 39.2368L49.878 39.004C49.7298 39.6228 49.4673 40.1238 49.1402 40.4509L49.8473 41.158ZM46.5549 42.3193C47.8456 42.3193 49.0896 41.9157 49.8473 41.158L49.1402 40.4509C48.627 40.9641 47.6736 41.3193 46.5549 41.3193V42.3193ZM41.5185 39.5475C42.676 41.6121 44.9002 42.3193 46.5549 42.3193V41.3193C45.1259 41.3193 43.3136 40.7044 42.3907 39.0584L41.5185 39.5475ZM39.9557 31.8096C40.0555 32.9102 40.2308 34.4499 40.4836 35.8996C40.7319 37.3234 41.0679 38.7439 41.5185 39.5475L42.3907 39.0584C42.0352 38.4243 41.7198 37.1677 41.4687 35.7278C41.2221 34.3138 41.0499 32.8031 40.9517 31.7193L39.9557 31.8096ZM48.2368 32.8295C47.4326 32.3785 46.012 32.0423 44.5883 31.794C43.1386 31.5412 41.5992 31.3661 40.4988 31.2665L40.4086 32.2624C41.4922 32.3605 43.0026 32.5326 44.4165 32.7791C45.8563 33.0302 47.113 33.3457 47.7476 33.7017L48.2368 32.8295ZM50.8521 36.4611C50.4992 34.8923 49.5728 33.5785 48.2367 32.8294L47.7477 33.7017C48.8128 34.2988 49.5796 35.361 49.8764 36.6805L50.8521 36.4611ZM51.7675 54.5759L56.9989 63.3709L57.8583 62.8597L52.6269 54.0646L51.7675 54.5759ZM72.4101 49.1079L52.084 53.8332L52.3104 54.8073L72.6365 50.0819L72.4101 49.1079ZM78.4468 58.129L72.9473 49.3299L72.0993 49.8599L77.5989 58.659L78.4468 58.129ZM57.5403 63.6027L78.1346 58.8814L77.9111 57.9067L57.3169 62.628L57.5403 63.6027ZM44.9593 64.246C44.9415 64.246 44.9231 64.2442 44.9045 64.2403L44.7001 65.2192C44.7862 65.2371 44.8731 65.246 44.9593 65.246V64.246ZM45.1851 64.1176C45.1373 64.1979 45.0508 64.246 44.9593 64.246V65.246C45.3979 65.246 45.8135 65.0169 46.0443 64.6292L45.1851 64.1176ZM49.8159 56.3324L45.185 64.1178L46.0444 64.629L50.6754 56.8437L49.8159 56.3324ZM50.7457 78.345L50.7456 56.588L49.7456 56.588L49.7457 78.345L50.7457 78.345ZM27.4967 75.2659L50.1678 78.8389L50.3235 77.8511L27.6524 74.2781L27.4967 75.2659ZM27.0746 61.1094V74.772H28.0746V61.1094H27.0746ZM44.9051 64.2404L27.6774 60.6201L27.4717 61.5987L44.6995 65.219L44.9051 64.2404ZM52.2711 78.2801L52.2711 56.5879L51.2711 56.5879L51.2711 78.2801L52.2711 78.2801ZM72.3138 73.0577L51.6593 77.7928L51.8828 78.7675L72.5373 74.0325L72.3138 73.0577ZM71.9255 61.2426V73.5451H72.9255V61.2426H71.9255ZM57.3395 65.214L72.5373 61.7299L72.3138 60.7552L57.116 64.2393L57.3395 65.214ZM55.9721 64.6286C56.2524 65.1002 56.8044 65.3359 57.3388 65.2141L57.1167 64.2391C57.0041 64.2648 56.8897 64.2152 56.8317 64.1176L55.9721 64.6286ZM51.3414 56.8435L55.9721 64.6287L56.8316 64.1175L52.2008 56.3323L51.3414 56.8435ZM21.8855 58.866L26.8509 59.9095L27.0566 58.9309L22.0911 57.8874L21.8855 58.866ZM27.0584 49.3212L21.5643 58.1117L22.4123 58.6417L27.9064 49.8512L27.0584 49.3212ZM49.913 53.8494L27.5865 49.0972L27.3783 50.0752L49.7048 54.8274L49.913 53.8494ZM45.0122 63.3802L50.2386 54.594L49.3791 54.0828L44.1528 62.869L45.0122 63.3802ZM26.8659 59.9125L44.4797 63.6139L44.6854 62.6353L27.0715 58.9339L26.8659 59.9125ZM26.8561 59.9106L26.871 59.9135L27.0664 58.9328L27.0515 58.9298L26.8561 59.9106Z" fill="#F6F6F6" mask="url(#path-2-inside-1)"/>
</svg>
