<svg width="22" height="22" viewBox="0 0 22 22" fill="none" xmlns="http://www.w3.org/2000/svg">
<path d="M4.86811 9.69565C4.86811 9.97179 5.09197 10.1957 5.36811 10.1957C5.64426 10.1957 5.86811 9.97179 5.86811 9.69565H4.86811ZM11.8246 8.82609C11.8246 9.10223 12.0485 9.32609 12.3246 9.32609C12.6008 9.32609 12.8246 9.10223 12.8246 8.82609H11.8246ZM4.49855 14.413C4.22241 14.413 3.99855 14.6369 3.99855 14.913C3.99855 15.1892 4.22241 15.413 4.49855 15.413V14.413ZM1.14395 16.5365L0.645052 16.5032L1.14395 16.5365ZM1.78163 6.97127L2.28052 7.00453L1.78163 6.97127ZM15.9111 6.97127L16.41 6.93801L15.9111 6.97127ZM15.4333 12.3043C15.4333 12.0282 15.2095 11.8043 14.9333 11.8043C14.6572 11.8043 14.4333 12.0282 14.4333 12.3043H15.4333ZM14.4333 17.5217C14.4333 17.7979 14.6572 18.0217 14.9333 18.0217C15.2095 18.0217 15.4333 17.7979 15.4333 17.5217H14.4333ZM17.542 15.413C17.8182 15.413 18.042 15.1892 18.042 14.913C18.042 14.6369 17.8182 14.413 17.542 14.413V15.413ZM12.3246 14.413C12.0485 14.413 11.8246 14.6369 11.8246 14.913C11.8246 15.1892 12.0485 15.413 12.3246 15.413V14.413ZM5.86811 9.69565V4.47826H4.86811V9.69565H5.86811ZM11.8246 4.47826V8.82609H12.8246V4.47826H11.8246ZM8.84638 1.5C9.82728 1.5 10.5598 1.82295 11.0476 2.32817C11.5382 2.83617 11.8246 3.57338 11.8246 4.47826H12.8246C12.8246 3.36105 12.4677 2.35913 11.767 1.63352C11.0636 0.905135 10.057 0.5 8.84638 0.5V1.5ZM8.84638 0.5C7.63579 0.5 6.62914 0.905135 5.92576 1.63352C5.22507 2.35913 4.86811 3.36105 4.86811 4.47826H5.86811C5.86811 3.57338 6.15455 2.83617 6.64511 2.32817C7.13299 1.82295 7.86547 1.5 8.84638 1.5V0.5ZM4.49855 15.413H8.84638V14.413H4.49855V15.413ZM3.5169 5.84783H14.1758V4.84783H3.5169V5.84783ZM1.64284 16.5697L2.28052 7.00453L1.28273 6.93801L0.645052 16.5032L1.64284 16.5697ZM15.4122 7.00453L15.5359 8.85935L16.5337 8.79283L16.41 6.93801L15.4122 7.00453ZM9.71594 17.8913H2.87922V18.8913H9.71594V17.8913ZM0.645052 16.5032C0.558893 17.7956 1.58397 18.8913 2.87922 18.8913V17.8913C2.16243 17.8913 1.59516 17.285 1.64284 16.5697L0.645052 16.5032ZM14.1758 5.84783C14.8282 5.84783 15.3688 6.35362 15.4122 7.00453L16.41 6.93801C16.3316 5.7618 15.3547 4.84783 14.1758 4.84783V5.84783ZM3.5169 4.84783C2.33808 4.84783 1.36115 5.7618 1.28273 6.93801L2.28052 7.00453C2.32391 6.35362 2.86455 5.84783 3.5169 5.84783V4.84783ZM20.5203 14.913C20.5203 17.9986 18.0189 20.5 14.9333 20.5V21.5C18.5712 21.5 21.5203 18.5509 21.5203 14.913H20.5203ZM14.9333 20.5C11.8477 20.5 9.34638 17.9986 9.34638 14.913H8.34638C8.34638 18.5509 11.2955 21.5 14.9333 21.5V20.5ZM9.34638 14.913C9.34638 11.8275 11.8477 9.32609 14.9333 9.32609V8.32609C11.2955 8.32609 8.34638 11.2752 8.34638 14.913H9.34638ZM14.9333 9.32609C18.0189 9.32609 20.5203 11.8275 20.5203 14.913H21.5203C21.5203 11.2752 18.5712 8.32609 14.9333 8.32609V9.32609ZM14.4333 12.3043V14.913H15.4333V12.3043H14.4333ZM14.4333 14.913V17.5217H15.4333V14.913H14.4333ZM17.542 14.413H14.9333V15.413H17.542V14.413ZM14.9333 14.413H12.3246V15.413H14.9333V14.413Z"/>
</svg>
