<?xml version="1.0" encoding="utf-8"?>
<!-- Generator: Adobe Illustrator 19.2.1, SVG Export Plug-In . SVG Version: 6.00 Build 0)  -->
<svg version="1.1" id="Слой_1" xmlns="http://www.w3.org/2000/svg" xmlns:xlink="http://www.w3.org/1999/xlink" x="0px" y="0px"
	 viewBox="0 0 19 19" style="enable-background:new 0 0 19 19;" xml:space="preserve">
<style type="text/css">
	.st0{fill:#0D0F0F;fill-opacity:0.2;}
</style>
<g>
	<path d="M15.9,12.5h-1.3v-1.3c0-0.2-0.2-0.3-0.3-0.3c-0.2,0-0.3,0.2-0.3,0.3v1.3h-1.3c-0.2,0-0.3,0.2-0.3,0.3c0,0.2,0.2,0.3,0.3,0.3h1.3v1.3c0,0.2,0.1,0.3,0.3,0.3c0.2,0,0.3-0.2,0.3-0.3v-1.3h1.3c0.2,0,0.3-0.1,0.3-0.3C16.2,12.6,16,12.5,15.9,12.5z"/>
	<path d="M18.1,10.2l-0.1-0.1l0.1-0.1c0.6-1.1,0.8-2.2,0.8-3.4c-0.1-2.9-2.4-5.2-5.2-5.2c-0.9,0-1.8,0.2-2.6,0.7c-0.5,0.3-1,0.7-1.4,1.2L9.5,3.6L9.3,3.4C8.9,2.9,8.5,2.5,7.9,2.2C7.1,1.7,6.2,1.5,5.3,1.5c-2.8,0-5.1,2.3-5.2,5.2C0,8.1,0.5,9.6,1.5,11c0.8,1.1,1.8,2.3,3.2,3.4c2.3,1.9,4.6,2.9,4.7,3l0.1,0.1l0.1-0.1c0.1-0.1,0.7-0.3,1.6-0.8l0.1-0.1l0.1,0.1c0.8,0.6,1.8,0.9,2.8,0.9c2.6,0,4.7-2.1,4.7-4.7C18.9,11.9,18.6,11,18.1,10.2z M10.6,16.2c-0.4,0.2-0.8,0.4-1,0.5l-0.1,0l-0.1,0c-0.7-0.4-2.5-1.3-4.3-2.8c-1.3-1.1-2.3-2.1-3-3.2C1.1,9.3,0.7,8,0.8,6.7c0-1.2,0.5-2.4,1.4-3.2c0.8-0.9,2-1.3,3.2-1.3c0.8,0,1.6,0.2,2.3,0.6c0.7,0.4,1.2,1,1.6,1.6l0.3,0.5l0.3-0.5c0.4-0.7,1-1.2,1.6-1.6c0.7-0.4,1.5-0.6,2.3-0.6c1.2,0,2.3,0.5,3.2,1.3c0.8,0.8,1.3,2,1.4,3.2c0,0.9-0.1,1.7-0.5,2.6l-0.1,0.3l-0.2-0.2c-0.9-0.8-2-1.2-3.2-1.2c-2.6,0-4.7,2.1-4.7,4.7c0,1.1,0.4,2.2,1.1,3l0.2,0.2L10.6,16.2z M17.1,15.7c-0.8,0.8-1.8,1.2-2.8,1.2c-1.1,0-2.1-0.4-2.8-1.2c-0.8-0.8-1.2-1.8-1.2-2.8s0.4-2.1,1.2-2.8c0.8-0.8,1.8-1.2,2.8-1.2s2.1,0.4,2.8,1.2c0.8,0.8,1.2,1.8,1.2,2.8S17.8,14.9,17.1,15.7z"/>
</g>
</svg>
