<svg xmlns="http://www.w3.org/2000/svg" viewBox="0 0 22 22">
<path d="M4.9,9.7c0,0.3,0.2,0.5,0.5,0.5c0.3,0,0.5-0.2,0.5-0.5H4.9z M11.8,8.8c0,0.3,0.2,0.5,0.5,0.5c0.3,0,0.5-0.2,0.5-0.5H11.8z M4.5,14.4c-0.3,0-0.5,0.2-0.5,0.5c0,0.3,0.2,0.5,0.5,0.5V14.4z M1.1,16.5l-0.5,0L1.1,16.5z M1.8,7l0.5,0L1.8,7z M15.9,7l0.5,0L15.9,7z M5.9,9.7V4.5h-1v5.2H5.9z M11.8,4.5v4.3h1V4.5H11.8z M8.8,1.5c1,0,1.7,0.3,2.2,0.8c0.5,0.5,0.8,1.2,0.8,2.2h1c0-1.1-0.4-2.1-1.1-2.8c-0.7-0.7-1.7-1.1-2.9-1.1V1.5z M8.8,0.5c-1.2,0-2.2,0.4-2.9,1.1C5.2,2.4,4.9,3.4,4.9,4.5h1c0-0.9,0.3-1.6,0.8-2.2c0.5-0.5,1.2-0.8,2.2-0.8V0.5z M4.5,15.4h4.3v-1H4.5V15.4z M3.5,5.8h10.7v-1H3.5V5.8z M1.6,16.6L2.3,7l-1-0.1l-0.6,9.6L1.6,16.6z M15.4,7l0.1,1.9l1-0.1l-0.1-1.9L15.4,7z M9.7,17.9H2.9v1h6.8V17.9z M0.6,16.5c-0.1,1.3,0.9,2.4,2.2,2.4v-1c-0.7,0-1.3-0.6-1.2-1.3L0.6,16.5z M14.2,5.8c0.7,0,1.2,0.5,1.2,1.2l1-0.1c-0.1-1.2-1.1-2.1-2.2-2.1V5.8z M3.5,4.8c-1.2,0-2.2,0.9-2.2,2.1l1,0.1c0-0.7,0.6-1.2,1.2-1.2V4.8z M20.5,14.9c0,3.1-2.5,5.6-5.6,5.6v1c3.6,0,6.6-2.9,6.6-6.6H20.5z M14.9,20.5c-3.1,0-5.6-2.5-5.6-5.6h-1c0,3.6,2.9,6.6,6.6,6.6V20.5z M9.3,14.9c0-3.1,2.5-5.6,5.6-5.6v-1c-3.6,0-6.6,2.9-6.6,6.6H9.3z M14.9,9.3c3.1,0,5.6,2.5,5.6,5.6h1c0-3.6-2.9-6.6-6.6-6.6V9.3z"/>
<path d="M14.6,17.1c-0.1,0-0.2,0-0.3-0.1L12,14.9c-0.2-0.2-0.2-0.5,0-0.7c0.2-0.2,0.5-0.2,0.7,0l1.9,1.8l2.8-3.2c0.2-0.2,0.5-0.2,0.7,0c0.2,0.2,0.2,0.5,0,0.7L15,16.9C14.9,17,14.7,17.1,14.6,17.1C14.6,17.1,14.6,17.1,14.6,17.1z"/>
</svg>
