<svg xmlns="http://www.w3.org/2000/svg" viewBox="0 0 16 16">
<path d="M11.1,1.5C9.7,1,8.2,0.9,6.8,1.1C4.7,1.5,3.1,2.5,2,4.2S0.7,7.8,1.1,9.7C1.5,11.5,2.5,13,4.2,14c1,0.6,2.1,0.9,3.3,1c1.4,0.1,2.7-0.2,3.9-0.8c0.4-0.2,0.6-0.7,0.4-1.1c-0.2-0.4-0.7-0.6-1.1-0.3c-1.1,0.6-2.3,0.8-3.5,0.6c-1.7-0.3-3-1.1-3.9-2.6C2.7,9.6,2.5,8.3,2.7,7.1c0.3-2,1.5-3.5,3.4-4.2c1.4-0.5,2.8-0.4,4.2,0s2.3,1.3,2.8,2.7c0.3,0.9,0.4,2,0.4,2.9c0,0.4-0.1,0.8-0.2,1.1c-0.1,0.2-0.2,0.4-0.4,0.4c-0.4,0.1-0.7,0.1-1.1-0.1c-0.2-0.1-0.3-0.2-0.4-0.4c-0.1-0.2-0.1-0.4-0.1-0.6V5.3c0-0.4-0.2-0.6-0.5-0.7c-0.3-0.2-0.6-0.1-0.9,0.1c-0.1,0.1-0.1,0.1-0.2,0c-0.6-0.4-1.3-0.5-2-0.5C6.3,4.3,5.2,5,4.6,6.4C4.3,7.1,4.2,7.9,4.4,8.7c0.4,2.5,2.7,3.3,4.3,3c0.6-0.1,1.1-0.4,1.5-0.7h0.1c0,0,0.1-0.1,0.1,0c0.5,0.5,1.1,0.7,1.7,0.8c0.8,0.1,1.5-0.1,2.1-0.7c0.4-0.4,0.6-0.9,0.7-1.4c0.3-1.6,0.2-3.2-0.4-4.8S12.7,2.1,11.1,1.5z M9.3,9.7C8.4,10.6,6.7,10.4,6,9.2C5.6,8.5,5.6,7.6,6,6.9s1.1-1.1,2.1-1c0.4,0,0.7,0.2,1,0.4c0.4,0.2,0.6,0.6,0.6,1.1v1.4C9.7,9.1,9.6,9.4,9.3,9.7z"/>
</svg>
