<svg width="16" height="16" viewBox="0 0 16 16" xmlns="http://www.w3.org/2000/svg">
<path fill-rule="evenodd" clip-rule="evenodd" d="M8.00075 0C5.82806 0 5.55539 0.0095001 4.70205 0.0483338C3.85037 0.0873342 3.26903 0.222169 2.76036 0.420004C2.23419 0.62434 1.78785 0.897676 1.34318 1.34251C0.898176 1.78719 0.62484 2.23352 0.419838 2.75953C0.221502 3.26837 0.0865009 3.84987 0.0481672 4.70122C0.0100001 5.55456 0 5.82739 0 8.00008C0 10.1728 0.00966677 10.4446 0.0483338 11.298C0.0875009 12.1496 0.222336 12.731 0.420004 13.2396C0.624506 13.7658 0.897843 14.2121 1.34268 14.6568C1.78719 15.1018 2.23352 15.3758 2.75936 15.5802C3.26837 15.778 3.84987 15.9128 4.70138 15.9518C5.55472 15.9907 5.82723 16.0002 7.99975 16.0002C10.1726 16.0002 10.4444 15.9907 11.2978 15.9518C12.1495 15.9128 12.7315 15.778 13.2405 15.5802C13.7665 15.3758 14.2121 15.1018 14.6567 14.6568C15.1017 14.2121 15.375 13.7658 15.58 13.2398C15.7767 12.731 15.9117 12.1495 15.9517 11.2981C15.99 10.4448 16 10.1728 16 8.00008C16 5.82739 15.99 5.55472 15.9517 4.70138C15.9117 3.84971 15.7767 3.26837 15.58 2.7597C15.375 2.23352 15.1017 1.78719 14.6567 1.34251C14.2116 0.897509 13.7666 0.624173 13.24 0.420004C12.73 0.222169 12.1483 0.0873342 11.2966 0.0483338C10.4433 0.0095001 10.1716 0 7.99825 0H8.00075ZM7.28286 1.44165C7.49586 1.44131 7.73353 1.44165 8.00053 1.44165C10.1366 1.44165 10.3897 1.44931 11.2332 1.48765C12.0132 1.52331 12.4366 1.65365 12.7186 1.76315C13.0919 1.90815 13.3581 2.08149 13.6379 2.36149C13.9179 2.64149 14.0913 2.90816 14.2366 3.2815C14.3461 3.56317 14.4766 3.98651 14.5121 4.76651C14.5504 5.60986 14.5588 5.86319 14.5588 7.99821C14.5588 10.1332 14.5504 10.3866 14.5121 11.2299C14.4764 12.0099 14.3461 12.4333 14.2366 12.7149C14.0916 13.0883 13.9179 13.3541 13.6379 13.6339C13.3579 13.9139 13.0921 14.0873 12.7186 14.2323C12.4369 14.3423 12.0132 14.4723 11.2332 14.508C10.3899 14.5463 10.1366 14.5546 8.00053 14.5546C5.86434 14.5546 5.61118 14.5463 4.76783 14.508C3.98782 14.4719 3.56449 14.3416 3.28232 14.2321C2.90898 14.0871 2.64231 13.9138 2.36231 13.6338C2.0823 13.3538 1.90897 13.0878 1.76363 12.7143C1.65413 12.4326 1.52363 12.0093 1.48813 11.2292C1.4498 10.3859 1.44213 10.1326 1.44213 7.99621C1.44213 5.85986 1.4498 5.60786 1.48813 4.76451C1.5238 3.98451 1.65413 3.56117 1.76363 3.27917C1.90864 2.90583 2.0823 2.63916 2.36231 2.35916C2.64231 2.07915 2.90898 1.90582 3.28232 1.76048C3.56432 1.65048 3.98782 1.52048 4.76783 1.48465C5.50584 1.45131 5.79184 1.44131 7.28286 1.43965V1.44165ZM12.2712 2.76989C11.7412 2.76989 11.3112 3.1994 11.3112 3.72957C11.3112 4.25958 11.7412 4.68958 12.2712 4.68958C12.8012 4.68958 13.2312 4.25958 13.2312 3.72957C13.2312 3.19956 12.8012 2.76956 12.2712 2.76956V2.76989ZM8.00046 3.89164C5.73161 3.89164 3.89209 5.73116 3.89209 8.00002C3.89209 10.2689 5.73161 12.1076 8.00046 12.1076C10.2693 12.1076 12.1082 10.2689 12.1082 8.00002C12.1082 5.73116 10.2692 3.89164 8.0003 3.89164H8.00046ZM8.00056 5.33346C9.47324 5.33346 10.6673 6.52731 10.6673 8.00016C10.6673 9.47284 9.47324 10.6669 8.00056 10.6669C6.52771 10.6669 5.33386 9.47284 5.33386 8.00016C5.33386 6.52731 6.52771 5.33346 8.00056 5.33346Z"/>
</svg>
