<?xml version="1.0" encoding="utf-8"?>
<!-- Generator: Adobe Illustrator 19.2.1, SVG Export Plug-In . SVG Version: 6.00 Build 0)  -->
<svg version="1.1" id="Слой_1" xmlns="http://www.w3.org/2000/svg" xmlns:xlink="http://www.w3.org/1999/xlink" x="0px" y="0px"
	 viewBox="0 0 22 16" style="enable-background:new 0 0 22 16;" xml:space="preserve">
<style type="text/css">
	.st0{fill:#FFFFFF;}
</style>
<path d="M16,4.9c-0.2-0.2-0.5-0.2-0.7,0c-0.2,0.2-0.2,0.5,0,0.7L16,4.9z M20.9,11.1c0.2,0.2,0.5,0.2,0.7,0c0.2-0.2,0.2-0.5,0-0.7L20.9,11.1z M21.6,5.5c0.2-0.2,0.2-0.5,0-0.7c-0.2-0.2-0.5-0.2-0.7,0L21.6,5.5z M15.3,10.5c-0.2,0.2-0.2,0.5,0,0.7c0.2,0.2,0.5,0.2,0.7,0L15.3,10.5z M5.5,11.8l-0.3,0.4L5.5,11.8z M5.2,4.3V3.8V4.3z M5.5,4.2L5.2,3.8L5.5,4.2z M10.5,15.4l-0.3,0.4L10.5,15.4z M10.5,0.6L10.7,1L10.5,0.6z M1.7,4.3v0.5V4.3z M15.3,5.5l2.8,2.8l0.7-0.7L16,4.9L15.3,5.5z M18.1,8.3l2.8,2.8l0.7-0.7l-2.8-2.8L18.1,8.3z M18.8,8.3l2.8-2.8l-0.7-0.7l-2.8,2.8L18.8,8.3z M18.1,7.7l-2.8,2.8l0.7,0.7l2.8-2.8L18.1,7.7z M11.5,1.4v13.2h0.9V1.4H11.5z M1.2,10.8V5.2H0.3v5.6H1.2z M1.7,4.7l3.6,0V3.8l-3.6,0V4.7z M5.8,4.6L10.7,1l-0.5-0.8L5.2,3.8L5.8,4.6z M10.7,15l-4.9-3.5l-0.5,0.8l4.9,3.5L10.7,15z M5.2,11.3H1.7v0.9h3.6V11.3z M5.8,11.4c-0.2-0.1-0.3-0.2-0.5-0.2v0.9c0,0,0,0,0,0L5.8,11.4z M5.2,4.7c0.2,0,0.4-0.1,0.5-0.2L5.2,3.8c0,0,0,0,0,0V4.7z M0.3,10.8c0,0.8,0.6,1.4,1.4,1.4v-0.9c-0.3,0-0.5-0.2-0.5-0.5H0.3z M11.5,14.6c0,0.4-0.4,0.6-0.7,0.4l-0.5,0.8c0.9,0.7,2.2,0,2.2-1.1H11.5z M12.4,1.4c0-1.1-1.3-1.8-2.2-1.1L10.7,1c0.3-0.2,0.7,0,0.7,0.4H12.4z M1.2,5.2c0-0.3,0.2-0.5,0.5-0.5V3.8c-0.8,0-1.4,0.6-1.4,1.4H1.2z"/>
</svg>
