<svg xmlns="http://www.w3.org/2000/svg" viewBox="0 0 12 12">
<path d="M6,11.5c-1.9,0-3.6-1.1-4.5-2.8v1.6c0,0.3-0.2,0.5-0.5,0.5s-0.5-0.2-0.5-0.5V7.4c0-0.3,0.2-0.5,0.5-0.5h2.7c0.3,0,0.5,0.2,0.5,0.5S3.9,7.9,3.7,7.9H2.2c0.7,1.6,2.1,2.6,3.8,2.6c1.8,0,3.5-1.3,4-3.2c0.1-0.3,0.3-0.4,0.6-0.3C10.9,7,11,7.3,11,7.6C10.3,9.9,8.3,11.5,6,11.5z M1.5,5.1c0,0-0.1,0-0.1,0C1.1,5,1,4.7,1,4.4c0.6-2.3,2.7-3.9,5-3.9c1.9,0,3.6,1.1,4.5,2.8V1.7c0-0.3,0.2-0.5,0.5-0.5s0.5,0.2,0.5,0.5v2.9c0,0.3-0.2,0.5-0.5,0.5H8.3c-0.3,0-0.5-0.2-0.5-0.5s0.2-0.5,0.5-0.5h1.4C9.1,2.5,7.6,1.5,6,1.5c-1.8,0-3.5,1.3-4,3.2C1.9,4.9,1.7,5.1,1.5,5.1z"/>
</svg>
