<?xml version="1.0" encoding="utf-8"?>
<!-- Generator: Adobe Illustrator 19.2.1, SVG Export Plug-In . SVG Version: 6.00 Build 0)  -->
<svg version="1.1" id="Слой_1" xmlns="http://www.w3.org/2000/svg" xmlns:xlink="http://www.w3.org/1999/xlink" x="0px" y="0px"
	 viewBox="0 0 21 21" style="enable-background:new 0 0 21 21;" xml:space="preserve">
<style type="text/css">
	.st0{fill:#0D0F0F;}
</style>
<path d="M19.5,20c-0.1,0-0.3,0-0.4-0.1l-5-5c-1.4,1.2-3.2,2-5.2,2C4.5,16.8,1,13.3,1,8.9C1,4.5,4.5,1,8.9,1c4.4,0,7.9,3.5,7.9,7.9c0,2-0.7,3.8-2,5.2l5,5c0.2,0.2,0.2,0.5,0,0.7C19.8,20,19.6,20,19.5,20z M8.9,2C5.1,2,2,5.1,2,8.9s3.1,6.9,6.9,6.9s6.9-3.1,6.9-6.9S12.7,2,8.9,2z"/>
</svg>
