<?xml version="1.0" encoding="utf-8"?>
<!-- Generator: Adobe Illustrator 19.2.1, SVG Export Plug-In . SVG Version: 6.00 Build 0)  -->
<svg version="1.1" id="Слой_1" xmlns="http://www.w3.org/2000/svg" xmlns:xlink="http://www.w3.org/1999/xlink" x="0px" y="0px"
	 viewBox="0 0 22 16" style="enable-background:new 0 0 22 16;" xml:space="preserve">
<style type="text/css">
	.st0{fill:#FFFFFF;}
</style>
<path d="M11.5,16c-0.3,0-0.6-0.1-0.8-0.3l-4.9-3.5H2.1c-0.8,0-1.4-0.6-1.4-1.4V5.2c0-0.8,0.6-1.4,1.4-1.4h3.6l4.9-3.5c0.4-0.3,1-0.3,1.5-0.1c0.5,0.2,0.8,0.7,0.8,1.2v13.2c0,0.5-0.3,1-0.8,1.2C11.9,15.9,11.7,16,11.5,16z M6.3,11.4l4.9,3.5c0.1,0.1,0.3,0.1,0.5,0c0.1,0,0.3-0.2,0.3-0.4V1.4c0-0.2-0.1-0.3-0.3-0.4c-0.2-0.1-0.3-0.1-0.5,0L6.3,4.6C6.1,4.7,5.9,4.7,5.7,4.7H2.1c-0.3,0-0.5,0.2-0.5,0.5v5.6c0,0.3,0.2,0.5,0.5,0.5h3.6C5.9,11.3,6.1,11.3,6.3,11.4L6.3,11.4z M18.9,14.1c-0.1,0-0.2,0-0.3-0.1c-0.2-0.2-0.2-0.5-0.1-0.7c1.1-1.4,1.8-3.3,1.8-5.3c0-2-0.6-3.9-1.8-5.3c-0.2-0.2-0.1-0.5,0.1-0.7c0.2-0.2,0.5-0.1,0.7,0.1c1.3,1.6,2,3.7,2,5.9c0,2.2-0.7,4.3-2,5.9C19.2,14,19.1,14.1,18.9,14.1z M16.1,11.3c-0.1,0-0.2,0-0.3-0.1c-0.2-0.2-0.2-0.5-0.1-0.7c0.5-0.7,0.8-1.6,0.8-2.5c0-0.9-0.3-1.8-0.8-2.5c-0.2-0.2-0.1-0.5,0.1-0.7c0.2-0.2,0.5-0.1,0.7,0.1c0.7,0.8,1,1.9,1,3.1s-0.4,2.3-1,3.1C16.4,11.2,16.3,11.3,16.1,11.3z"/>
</svg>
