<?xml version="1.0" standalone="no"?>
<!DOCTYPE svg PUBLIC "-//W3C//DTD SVG 20010904//EN"
 "http://www.w3.org/TR/2001/REC-SVG-20010904/DTD/svg10.dtd">
<svg version="1.0" xmlns="http://www.w3.org/2000/svg"
 width="640.000000pt" height="640.000000pt" viewBox="0 0 640.000000 640.000000"
 preserveAspectRatio="xMidYMid meet">
<metadata>
Created by potrace 1.14, written by Peter Selinger 2001-2017
</metadata>
<g transform="translate(0.000000,640.000000) scale(0.100000,-0.100000)"
fill="#000000" stroke="none">
<path d="M2329 6008 c0 -2 -2 -11 -4 -20 -3 -19 -23 -85 -32 -108 -4 -8 -7
-17 -8 -20 -14 -53 -20 -67 -85 -205 -55 -116 -170 -297 -242 -379 -143 -165
-265 -267 -483 -403 -37 -23 -200 -100 -240 -114 -22 -7 -44 -16 -50 -20 -5
-3 -46 -17 -90 -29 -44 -13 -86 -28 -93 -33 -15 -12 -4 -26 24 -31 36 -7 109
-28 119 -34 6 -4 16 -7 24 -8 36 -6 205 -82 306 -139 120 -67 277 -188 379
-291 66 -66 126 -135 144 -163 9 -14 28 -38 41 -53 23 -26 42 -55 57 -88 4 -8
11 -17 15 -20 12 -9 110 -201 141 -279 17 -42 41 -114 55 -161 21 -73 39 -107
50 -96 3 2 19 58 37 131 3 11 8 24 43 115 32 85 85 194 95 198 4 2 8 12 8 23
0 10 5 19 10 19 6 0 10 5 10 10 0 10 90 148 115 177 5 6 24 29 40 50 98 124
265 275 408 370 86 57 313 173 338 173 8 0 19 4 25 9 5 4 43 18 84 30 151 44
160 56 64 82 -32 8 -66 18 -74 22 -8 3 -44 15 -80 27 -71 25 -276 123 -301
146 -8 8 -21 14 -27 14 -7 0 -12 5 -12 10 0 6 -5 10 -11 10 -11 0 -153 106
-208 155 -253 228 -430 502 -528 820 -13 44 -26 86 -28 93 -4 10 -33 18 -36
10z"/>
<path d="M5039 6000 c-1 -5 -2 -13 -4 -17 -1 -5 -5 -21 -9 -38 -15 -57 -69
-200 -104 -275 -34 -74 -126 -234 -147 -256 -5 -6 -17 -22 -25 -34 -66 -101
-241 -282 -360 -373 -120 -91 -357 -227 -397 -227 -7 0 -13 -5 -13 -12 0 -6
-3 -8 -7 -5 -3 4 -11 3 -17 -2 -6 -5 -38 -17 -71 -26 -33 -10 -66 -22 -72 -27
-7 -6 -13 -8 -13 -5 0 3 -19 -1 -42 -8 -44 -12 -66 -45 -32 -45 34 0 260 -83
360 -132 338 -165 622 -441 801 -778 46 -87 104 -229 128 -315 31 -106 36
-117 51 -104 8 6 14 17 14 23 0 13 55 188 70 221 37 86 96 205 112 227 11 16
16 28 11 28 -4 0 -3 4 2 8 15 11 55 70 55 82 0 5 5 10 10 10 6 0 10 6 10 13 0
7 10 23 23 37 12 14 36 43 52 65 39 52 197 210 260 260 28 22 52 43 55 46 9
11 128 89 182 119 50 29 150 78 228 112 60 27 207 74 243 77 4 1 7 9 7 19 0
17 -27 28 -140 57 -70 18 -282 116 -368 171 -29 19 -54 34 -57 34 -3 0 -13 6
-22 14 -10 8 -47 36 -83 62 -65 47 -320 298 -320 314 0 5 -6 15 -14 23 -23 23
-121 173 -147 225 -13 26 -27 49 -31 50 -5 2 -8 8 -8 14 0 6 -14 41 -31 77
-31 66 -99 263 -99 288 0 15 -39 18 -41 3z"/>
<path d="M3604 3508 c-16 -12 -31 -25 -34 -28 -3 -3 -25 -21 -50 -40 -25 -19
-47 -37 -50 -40 -3 -3 -48 -39 -100 -80 -92 -73 -131 -104 -154 -125 -6 -6
-54 -44 -106 -85 -52 -41 -100 -79 -106 -85 -15 -13 -27 -22 -169 -135 -66
-52 -122 -97 -125 -100 -3 -3 -165 -134 -360 -290 -431 -345 -471 -377 -490
-393 -8 -7 -37 -31 -65 -53 -27 -21 -52 -41 -55 -44 -3 -3 -34 -28 -70 -55
-36 -28 -71 -56 -78 -63 -8 -7 -30 -25 -50 -40 -20 -15 -44 -34 -53 -42 -9 -8
-25 -22 -35 -30 -11 -8 -51 -40 -89 -70 -38 -30 -79 -62 -90 -72 -11 -9 -63
-51 -115 -92 -52 -42 -113 -91 -134 -109 -22 -18 -54 -43 -73 -56 -18 -13 -33
-28 -33 -33 0 -4 -6 -8 -14 -8 -8 0 -16 -3 -18 -7 -2 -7 -92 -83 -123 -105 -5
-4 -22 -18 -37 -30 -15 -13 -42 -34 -59 -48 -39 -30 -108 -85 -129 -103 -8 -6
-30 -25 -50 -40 -19 -16 -51 -41 -70 -57 -19 -15 -120 -96 -225 -180 -104 -84
-190 -154 -190 -157 0 -2 38 -53 85 -113 54 -70 92 -109 104 -110 16 0 49 22
131 92 75 63 199 158 206 158 5 0 9 6 9 13 0 7 13 20 29 30 16 9 61 43 99 75
38 31 86 71 107 87 21 17 43 35 49 40 6 6 31 26 56 45 25 19 50 39 56 45 6 5
26 21 44 35 18 14 38 30 44 35 6 6 33 28 61 50 27 22 59 47 70 57 11 9 40 32
65 52 25 20 52 42 60 49 8 7 85 69 170 137 85 68 163 132 173 142 10 10 21 18
25 18 4 0 25 16 45 35 20 19 39 35 41 35 2 0 15 9 28 20 32 27 206 168 253
205 21 17 43 35 49 40 6 6 79 65 161 130 83 66 152 122 155 125 4 5 275 224
444 360 159 127 685 552 700 565 6 6 31 26 56 45 64 49 69 54 84 67 8 7 49 40
91 73 l76 61 -43 52 c-24 28 -50 59 -58 67 -8 9 -31 35 -51 58 -20 23 -39 42
-42 42 -2 0 -17 -10 -33 -22z"/>
<path d="M5035 3272 c-10 -7 -12 -14 -21 -56 -20 -101 -122 -337 -201 -466
-96 -155 -265 -349 -404 -463 -50 -42 -250 -173 -256 -169 -3 2 -9 0 -12 -5
-3 -4 -33 -21 -66 -37 -33 -15 -81 -39 -106 -51 -26 -13 -62 -26 -80 -30 -19
-4 -40 -12 -46 -17 -7 -6 -13 -8 -13 -4 0 4 -13 0 -30 -9 -16 -8 -31 -15 -32
-14 -2 0 -20 -2 -40 -6 -51 -10 -48 -31 5 -46 374 -105 707 -317 926 -589 20
-25 39 -47 42 -50 13 -11 129 -189 129 -198 0 -6 4 -12 9 -14 24 -9 145 -300
181 -435 13 -53 35 -56 45 -6 4 21 10 42 13 48 4 5 7 15 8 20 5 28 50 148 80
213 19 41 34 75 34 77 0 15 145 248 175 281 6 6 21 25 35 44 34 44 217 229
259 260 18 14 47 36 64 50 39 32 173 117 210 133 15 6 27 15 27 19 0 5 8 8 19
8 10 0 24 7 31 15 7 8 20 15 29 15 9 0 21 4 27 9 11 11 194 80 223 84 11 2 24
6 27 10 4 4 18 7 30 7 13 0 28 9 33 19 9 17 6 20 -27 27 -42 9 -50 10 -57 14
-3 1 -8 3 -12 4 -103 26 -363 141 -379 167 -3 5 -9 7 -13 5 -4 -3 -17 4 -29
14 -12 11 -24 20 -28 20 -22 0 -216 158 -328 266 -171 167 -343 456 -421 709
-40 128 -45 138 -60 127z"/>
</g>
</svg>
