<svg width="46" height="46" viewBox="0 0 46 46" fill="none" xmlns="http://www.w3.org/2000/svg">
<path fill-rule="evenodd" clip-rule="evenodd" d="M22.9973 16.887C24.8688 16.887 26.1313 17.6954 26.8511 18.3709L29.6639 15.6245C27.9363 14.0188 25.6883 13.0332 22.9973 13.0332C19.0992 13.0332 15.7327 15.2702 14.0938 18.5259L17.3163 21.0287C18.1247 18.6256 20.3617 16.887 22.9973 16.887Z" fill="#E2E2E2"/>
<path fill-rule="evenodd" clip-rule="evenodd" d="M32.568 23.2212C32.568 22.4017 32.5016 21.8037 32.3576 21.1836H23V24.8823H28.4927C28.382 25.8015 27.784 27.1857 26.4551 28.116L29.6001 30.5523C31.4827 28.8136 32.568 26.2555 32.568 23.2212Z" fill="#E2E2E2"/>
<path fill-rule="evenodd" clip-rule="evenodd" d="M17.3319 24.9725C17.1215 24.3523 16.9997 23.6879 16.9997 23.0013C16.9997 22.3147 17.1215 21.6502 17.3208 21.0301L14.0983 18.5273C13.4227 19.8784 13.0352 21.3955 13.0352 23.0013C13.0352 24.607 13.4227 26.1242 14.0983 27.4752L17.3319 24.9725Z" fill="#E2E2E2"/>
<path fill-rule="evenodd" clip-rule="evenodd" d="M22.9999 32.9662C25.6909 32.9662 27.95 32.0803 29.6001 30.552L26.455 28.1157C25.6134 28.7027 24.4838 29.1124 22.9999 29.1124C20.3643 29.1124 18.1273 27.3738 17.33 24.9707L14.1074 27.4734C15.7464 30.7292 19.1018 32.9662 22.9999 32.9662Z" fill="#E2E2E2"/>
</svg>
