<svg width="46" height="46" viewBox="0 0 46 46" fill="none" xmlns="http://www.w3.org/2000/svg">
<path fill-rule="evenodd" clip-rule="evenodd" d="M22.3112 18.6935L22.3594 19.4894L21.555 19.3919C18.627 19.0184 16.069 17.7515 13.8971 15.6238L12.8353 14.5681L12.5618 15.3477C11.9826 17.0856 12.3527 18.9209 13.5593 20.1553C14.2028 20.8374 14.058 20.9349 12.9479 20.5289C12.5618 20.3989 12.224 20.3015 12.1918 20.3502C12.0792 20.4639 12.4653 21.9419 12.771 22.5266C13.1892 23.3387 14.0419 24.1345 14.975 24.6056L15.7633 24.9791L14.8302 24.9954C13.9293 24.9954 13.8971 25.0116 13.9936 25.3527C14.3154 26.4084 15.5864 27.5291 17.0021 28.0164L17.9996 28.3574L17.1308 28.8772C15.8438 29.6243 14.3315 30.0466 12.8192 30.0791C12.0953 30.0953 11.5 30.1603 11.5 30.209C11.5 30.3714 13.4627 31.281 14.605 31.6383C18.0317 32.694 22.102 32.2392 25.1587 30.4364C27.3306 29.1533 29.5025 26.6033 30.516 24.1345C31.063 22.819 31.61 20.4152 31.61 19.262C31.61 18.5149 31.6583 18.4174 32.5592 17.5241C33.0901 17.0044 33.5889 16.4359 33.6854 16.2735C33.8463 15.9649 33.8302 15.9649 33.0097 16.241C31.6422 16.7283 31.4492 16.6633 32.1248 15.9324C32.6236 15.4127 33.2188 14.4706 33.2188 14.1945C33.2188 14.1458 32.9775 14.227 32.704 14.3732C32.4144 14.5356 31.7709 14.7792 31.2883 14.9254L30.4195 15.2015L29.6312 14.6655C29.1968 14.3732 28.5855 14.0483 28.2637 13.9509C27.4432 13.7235 26.1884 13.756 25.4483 14.0159C23.4373 14.7467 22.1664 16.6308 22.3112 18.6935Z" fill="#E2E2E2"/>
</svg>
