<svg width="46" height="46" viewBox="0 0 46 46" fill="none" xmlns="http://www.w3.org/2000/svg">
<mask id="mask0" mask-type="alpha" maskUnits="userSpaceOnUse" x="0" y="0" width="46" height="46">
<path fill-rule="evenodd" clip-rule="evenodd" d="M0 23C0 10.2975 10.2975 0 23 0C35.7025 0 46 10.2975 46 23C46 35.7025 35.7025 46 23 46C10.2975 46 0 35.7025 0 23Z" fill="white"/>
</mask>
<g mask="url(#mask0)">
<path fill-rule="evenodd" clip-rule="evenodd" d="M23.0002 10.7344C19.6688 10.7344 19.2507 10.7489 17.9422 10.8085C16.6363 10.8683 15.7449 11.075 14.965 11.3784C14.1582 11.6917 13.4738 12.1108 12.792 12.7929C12.1096 13.4747 11.6905 14.1591 11.3762 14.9657C11.0721 15.7459 10.8651 16.6375 10.8063 17.9429C10.7478 19.2514 10.7324 19.6697 10.7324 23.0012C10.7324 26.3326 10.7472 26.7494 10.8065 28.0579C10.8666 29.3638 11.0733 30.2552 11.3764 31.0352C11.69 31.842 12.1091 32.5263 12.7912 33.2082C13.4728 33.8905 14.1572 34.3106 14.9634 34.624C15.7439 34.9273 16.6356 35.1341 17.9412 35.1939C19.2497 35.2534 19.6675 35.268 22.9987 35.268C26.3304 35.268 26.7472 35.2534 28.0557 35.1939C29.3616 35.1341 30.254 34.9273 31.0345 34.624C31.841 34.3106 32.5244 33.8905 33.206 33.2082C33.8883 32.5263 34.3074 31.842 34.6218 31.0354C34.9233 30.2552 35.1303 29.3636 35.1917 28.0582C35.2504 26.7497 35.2658 26.3326 35.2658 23.0012C35.2658 19.6697 35.2504 19.2516 35.1917 17.9432C35.1303 16.6373 34.9233 15.7459 34.6218 14.9659C34.3074 14.1591 33.8883 13.4747 33.206 12.7929C32.5236 12.1106 31.8413 11.6914 31.0337 11.3784C30.2517 11.075 29.3598 10.8683 28.0539 10.8085C26.7454 10.7489 26.3289 10.7344 22.9964 10.7344H23.0002ZM21.9028 12.9443C22.2294 12.9438 22.5939 12.9443 23.0033 12.9443C26.2785 12.9443 26.6667 12.956 27.9601 13.0148C29.1561 13.0695 29.8052 13.2694 30.2376 13.4373C30.8101 13.6596 31.2182 13.9254 31.6473 14.3547C32.0766 14.7841 32.3424 15.1929 32.5652 15.7654C32.7331 16.1973 32.9332 16.8464 32.9877 18.0424C33.0465 19.3355 33.0592 19.724 33.0592 22.9977C33.0592 26.2714 33.0465 26.6598 32.9877 27.953C32.933 29.149 32.7331 29.7981 32.5652 30.23C32.3429 30.8024 32.0766 31.2101 31.6473 31.6391C31.2179 32.0685 30.8103 32.3342 30.2376 32.5566C29.8057 32.7253 29.1561 32.9246 27.9601 32.9793C26.667 33.0381 26.2785 33.0508 23.0033 33.0508C19.7278 33.0508 19.3396 33.0381 18.0465 32.9793C16.8505 32.9241 16.2013 32.7242 15.7687 32.5563C15.1962 32.334 14.7873 32.0682 14.358 31.6389C13.9287 31.2095 13.6629 30.8017 13.44 30.229C13.2721 29.7971 13.072 29.148 13.0176 27.9519C12.9588 26.6588 12.9471 26.2704 12.9471 22.9946C12.9471 19.7189 12.9588 19.3325 13.0176 18.0394C13.0723 16.8433 13.2721 16.1942 13.44 15.7618C13.6624 15.1894 13.9287 14.7805 14.358 14.3511C14.7873 13.9218 15.1962 13.656 15.7687 13.4332C16.2011 13.2645 16.8505 13.0652 18.0465 13.0102C19.1781 12.9591 19.6166 12.9438 21.9028 12.9412V12.9443ZM29.5491 14.9813C28.7365 14.9813 28.0771 15.6398 28.0771 16.4528C28.0771 17.2654 28.7365 17.9248 29.5491 17.9248C30.3618 17.9248 31.0212 17.2654 31.0212 16.4528C31.0212 15.6401 30.3618 14.9807 29.5491 14.9807V14.9813ZM22.999 16.7018C19.5201 16.7018 16.6995 19.5224 16.6995 23.0013C16.6995 26.4802 19.5201 29.2995 22.999 29.2995C26.4779 29.2995 29.2975 26.4802 29.2975 23.0013C29.2975 19.5224 26.4776 16.7018 22.9987 16.7018H22.999ZM23.001 18.9118C25.2592 18.9118 27.09 20.7423 27.09 23.0007C27.09 25.2588 25.2592 27.0896 23.001 27.0896C20.7427 27.0896 18.9121 25.2588 18.9121 23.0007C18.9121 20.7423 20.7427 18.9118 23.001 18.9118Z" fill="#E2E2E2"/>
</g>
</svg>
