<svg width="46" height="46" viewBox="0 0 46 46" fill="none" xmlns="http://www.w3.org/2000/svg">
<path fill-rule="evenodd" clip-rule="evenodd" d="M25.5316 17.4357C25.5316 16.0805 24.3896 14.9786 22.9858 14.9786C21.583 14.9786 20.44 16.0805 20.44 17.4357C20.44 18.7898 21.583 19.8924 22.9858 19.8924C24.3896 19.8924 25.5316 18.7898 25.5316 17.4357ZM29.1317 17.4355C29.1317 20.7076 26.3747 23.3693 22.9831 23.3693C19.5922 23.3693 16.8345 20.7076 16.8345 17.4355C16.8345 14.1624 19.5922 11.5 22.9831 11.5C26.3747 11.5 29.1317 14.1624 29.1317 17.4355ZM29.052 26.7868C27.9402 27.4608 26.7331 27.9388 25.4815 28.214L28.9188 31.5323C29.6229 32.2106 29.6229 33.3121 28.9188 33.9911C28.2154 34.6701 27.0753 34.6701 26.3726 33.9911L22.9931 30.7304L19.6166 33.9911C19.2645 34.3303 18.8032 34.5 18.3419 34.5C17.8812 34.5 17.4206 34.3303 17.0686 33.9911C16.3652 33.3121 16.3652 32.2113 17.0678 31.5323L20.5054 28.214C19.2539 27.9388 18.0468 27.4601 16.935 26.7868C16.0937 26.2747 15.8409 25.2019 16.371 24.389C16.8997 23.575 18.0115 23.33 18.8543 23.8421C21.3714 25.3705 24.6141 25.3709 27.1327 23.8421C27.9755 23.33 29.0869 23.575 29.6167 24.389C30.1468 25.2011 29.8933 26.2747 29.052 26.7868Z" fill="#F68634"/>
</svg>
