<svg width="46" height="46" viewBox="0 0 46 46" fill="none" xmlns="http://www.w3.org/2000/svg">
<path fill-rule="evenodd" clip-rule="evenodd" d="M24.2022 30.5484C24.2022 30.5484 24.645 30.5001 24.8718 30.261C25.0794 30.042 25.0722 29.6285 25.0722 29.6285C25.0722 29.6285 25.0446 27.6981 25.9577 27.413C26.8577 27.1327 28.0132 29.2799 29.2395 30.1056C30.1659 30.7298 30.869 30.5932 30.869 30.5932L34.146 30.5484C34.146 30.5484 35.8595 30.4448 35.0472 29.1221C34.98 29.0137 34.5732 28.1433 32.6113 26.3553C30.5559 24.4837 30.8318 24.7864 33.3061 21.5485C34.8132 19.5768 35.4156 18.3731 35.2272 17.8583C35.0484 17.366 33.9396 17.4967 33.9396 17.4967L30.2511 17.5191C30.2511 17.5191 29.9775 17.4826 29.7747 17.6016C29.5767 17.7182 29.4483 17.9903 29.4483 17.9903C29.4483 17.9903 28.8652 19.5156 28.0864 20.8136C26.4437 23.5509 25.7873 23.6957 25.5186 23.5261C24.8934 23.1292 25.0494 21.9337 25.0494 21.0845C25.0494 18.4308 25.4598 17.3248 24.2514 17.0386C23.8507 16.9432 23.5555 16.8807 22.5295 16.8701C21.2132 16.8572 20.0997 16.8748 19.4685 17.1776C19.0486 17.379 18.7246 17.8289 18.9226 17.8548C19.1662 17.8866 19.7181 18.0009 20.0109 18.3919C20.3889 18.8972 20.3757 20.0303 20.3757 20.0303C20.3757 20.0303 20.5929 23.1539 19.8681 23.5414C19.3713 23.8076 18.6898 23.2646 17.2247 20.7806C16.4747 19.5085 15.9084 18.1022 15.9084 18.1022C15.9084 18.1022 15.7992 17.8395 15.6036 17.6982C15.3672 17.5274 15.0372 17.4744 15.0372 17.4744L11.5322 17.4967C11.5322 17.4967 11.0055 17.5109 10.8123 17.7358C10.6407 17.9349 10.7991 18.3483 10.7991 18.3483C10.7991 18.3483 13.5433 24.651 16.6511 27.8276C19.5009 30.7392 22.7359 30.5484 22.7359 30.5484H24.2022Z" fill="#4C6C91"/>
</svg>
