<svg width="301" height="32" viewBox="0 0 301 32" fill="none" xmlns="http://www.w3.org/2000/svg">
<path d="M49.5845 22.3939V8.49313C49.5845 7.74017 49.469 7.74017 46.9288 7.74017V7.56641H66.2979V7.74017C63.7866 7.74017 63.6711 7.74017 63.6711 8.49313V22.3939C63.6711 23.1759 63.7866 23.1759 66.2979 23.1759V23.3496H58.302V23.1759C60.4093 23.1759 60.5247 23.1759 60.5247 22.3939V8.49313C60.5247 7.74017 60.4093 7.74017 58.302 7.74017H54.9247C52.8175 7.74017 52.702 7.74017 52.702 8.49313V22.3939C52.702 23.1759 52.8175 23.1759 54.9247 23.1759V23.3496H46.8999V23.1759C49.4401 23.1759 49.5845 23.1759 49.5845 22.3939Z" fill="black"/>
<path d="M67.9731 15.4437C67.9731 10.5495 70.9464 7.24805 75.8248 7.24805C80.7032 7.24805 83.7052 10.5495 83.7052 15.4437C83.7052 20.338 80.7032 23.6684 75.8248 23.6684C70.9464 23.6684 67.9731 20.338 67.9731 15.4437ZM75.8248 23.4657C79.3176 23.4657 80.4722 19.7298 80.4722 15.4148C80.4722 11.0997 79.3176 7.39285 75.8248 7.39285C72.3319 7.39285 71.2062 11.0997 71.2062 15.4148C71.2062 19.7588 72.3319 23.4657 75.8248 23.4657Z" fill="black"/>
<path d="M84.3055 28.591H84.1323L84.4499 23.1466H86.4127C88.3756 23.1466 89.155 20.2506 89.7324 8.46383C89.7901 7.71087 89.6746 7.71087 86.8169 7.71087V7.53711H102.462V7.71087C99.9221 7.71087 99.8066 7.71087 99.8066 8.46383V22.3646C99.8066 23.1466 99.9221 23.1466 102.462 23.1466L102.78 28.591H102.607C102.376 25.6082 100.326 23.3493 97.4973 23.3493H89.7035C86.5859 23.3493 84.4787 25.6082 84.3055 28.591ZM94.0623 23.1755C96.5736 23.1755 96.6891 23.1755 96.6891 22.3936V8.49279C96.6891 7.73983 96.5736 7.73983 94.4664 7.73983H92.3014C90.1076 7.73983 89.9633 7.73983 89.9056 8.49279C89.4437 18.8026 88.722 22.3646 87.1921 23.1755H94.0623Z" fill="black"/>
<path d="M104.195 19.9901C104.195 18.9476 104.686 17.905 105.436 17.3837H108.698C106.591 16.8624 105.205 15.1248 105.205 12.808C105.205 9.56451 107.457 7.21875 111.383 7.21875C114.76 7.21875 117.3 9.41971 117.3 13.1266V19.4978C117.3 21.6408 117.964 22.3648 118.974 22.3648C120.129 22.3648 120.649 21.2064 120.649 19.0634H120.822C120.822 21.6698 120.158 23.668 117.271 23.668C115.568 23.668 114.183 22.7124 114.183 20.3087V19.0924C113.519 21.6408 111.354 23.668 108.64 23.668C105.811 23.668 104.195 22.3648 104.195 19.9901ZM110.17 17.3837H114.154V13.5031C114.154 10.4623 112.479 8.49299 109.795 8.49299C107.399 8.49299 105.378 9.88307 105.378 12.808C105.378 15.5013 107.399 17.3837 110.17 17.3837ZM110.141 22.3648C112.335 22.3648 114.154 20.106 114.154 17.5864H108.092C107.659 18.1077 107.312 18.9476 107.312 19.8164C107.341 21.4092 108.409 22.3648 110.141 22.3648Z" fill="black"/>
<path d="M123.338 28.9391V8.49333C123.338 7.74037 123.222 7.74037 120.682 7.74037V7.56661H126.484V12.4029C126.975 9.21733 128.678 7.24805 132.055 7.24805C136.559 7.24805 138.983 10.5495 138.983 15.4437C138.983 20.338 136.53 23.6684 132.055 23.6684C128.678 23.6684 126.975 21.6991 126.484 18.5135V28.9391C126.484 29.6921 126.6 29.6921 129.573 29.6921V29.8658H120.682V29.6921C123.222 29.6921 123.338 29.6921 123.338 28.9391ZM131.074 23.1471C134.249 23.1471 135.693 19.7588 135.693 15.4437C135.693 11.1287 134.278 7.76933 131.074 7.76933C127.899 7.76933 126.455 11.1287 126.455 15.4437C126.455 19.7588 127.899 23.1471 131.074 23.1471Z" fill="black"/>
<path d="M143.146 22.3936V8.49279C143.146 7.73983 143.031 7.73983 140.491 7.73983V7.56607H148.198V7.73983C146.408 7.73983 146.293 7.73983 146.293 8.49279V16.7754L151.979 10.549C153.538 8.84031 153.105 7.71087 150.017 7.71087V7.53711H157.406V7.71087C155.415 7.71087 153.74 8.84031 152.124 10.6358L150.103 12.8368L155.299 20.7429C156.829 23.0597 156.887 23.1466 158.821 23.1466V23.3203H151.027V23.1466C152.99 23.1466 153.134 23.1466 152.615 22.3646L147.88 15.2984L146.264 17.036V22.3646C146.264 23.1466 146.379 23.1466 148.689 23.1466V23.3203H140.491V23.1466C143.031 23.1755 143.146 23.1755 143.146 22.3936Z" fill="black"/>
<path d="M162.447 22.3939V8.49313C162.447 7.74017 162.332 7.74017 159.792 7.74017V7.56641H167.816V7.74017C165.709 7.74017 165.594 7.74017 165.594 8.49313V21.0328L173.416 9.50673V8.49313C173.416 7.74017 173.301 7.74017 171.194 7.74017V7.56641H179.19V7.74017C176.678 7.74017 176.563 7.74017 176.563 8.49313V22.3939C176.563 23.1759 176.678 23.1759 179.19 23.1759V23.3496H171.194V23.1759C173.301 23.1759 173.416 23.1759 173.416 22.3939V9.88321L165.594 21.4093V22.3939C165.594 23.1759 165.709 23.1759 167.816 23.1759V23.3496H159.792V23.1759C162.332 23.1759 162.447 23.1759 162.447 22.3939Z" fill="black"/>
<path d="M194.603 22.3939V8.49313C194.603 7.74017 194.488 7.74017 191.948 7.74017V7.56641H211.317V7.74017C208.806 7.74017 208.69 7.74017 208.69 8.49313V22.3939C208.69 23.1759 208.806 23.1759 211.317 23.1759V23.3496H203.321V23.1759C205.428 23.1759 205.544 23.1759 205.544 22.3939V8.49313C205.544 7.74017 205.428 7.74017 203.321 7.74017H199.944C197.836 7.74017 197.721 7.74017 197.721 8.49313V22.3939C197.721 23.1759 197.836 23.1759 199.944 23.1759V23.3496H191.948V23.1759C194.488 23.1759 194.603 23.1759 194.603 22.3939Z" fill="black"/>
<path d="M215.101 28.9391V8.49333C215.101 7.74037 214.985 7.74037 212.445 7.74037V7.56661H218.218V12.4029C218.709 9.21733 220.412 7.24805 223.789 7.24805C228.263 7.24805 230.717 10.5495 230.717 15.4437C230.717 20.338 228.263 23.6684 223.789 23.6684C220.412 23.6684 218.709 21.6991 218.218 18.5135V28.9391C218.218 29.6921 218.334 29.6921 221.307 29.6921V29.8658H212.445V29.6921C214.985 29.6921 215.101 29.6921 215.101 28.9391ZM222.837 23.1471C226.012 23.1471 227.455 19.7588 227.455 15.4437C227.455 11.1287 226.041 7.76933 222.837 7.76933C219.661 7.76933 218.218 11.1287 218.218 15.4437C218.218 19.7588 219.661 23.1471 222.837 23.1471Z" fill="black"/>
<path d="M233.57 15.4437C233.57 10.5495 236.543 7.24805 241.421 7.24805C246.3 7.24805 249.302 10.5495 249.302 15.4437C249.302 20.338 246.3 23.6684 241.421 23.6684C236.543 23.6684 233.57 20.338 233.57 15.4437ZM241.45 23.4657C244.943 23.4657 246.098 19.7298 246.098 15.4148C246.098 11.0997 244.943 7.39285 241.45 7.39285C237.958 7.39285 236.832 11.0997 236.832 15.4148C236.832 19.7588 237.958 23.4657 241.45 23.4657Z" fill="black"/>
<path d="M252.195 15.4437C252.195 10.5495 255.168 7.24805 259.758 7.24805C263.712 7.24805 265.589 9.68069 265.589 11.4472C265.589 12.4898 264.838 13.2717 263.77 13.2717C262.76 13.2717 262.038 12.5477 262.038 11.5341C262.038 10.3468 262.933 10.144 262.933 9.56485C262.933 8.75397 261.894 7.42181 259.787 7.42181C256.611 7.42181 255.486 10.9839 255.486 14.8645C255.486 19.2665 257.304 22.3362 261.201 22.3362C263.972 22.3362 265.733 20.4828 266.079 17.2682H266.253C265.877 20.6276 263.857 23.6394 259.642 23.6394C254.879 23.6684 252.195 20.338 252.195 15.4437Z" fill="black"/>
<path d="M273.732 22.3936V8.49279C273.732 7.73983 273.617 7.73983 272.058 7.73983H271.596C269.604 7.73983 267.901 10.4621 267.699 13.416H267.526L267.901 7.53711H282.738L283.085 13.416H282.911C282.681 10.4621 281.006 7.73983 279.043 7.73983H278.582C277.023 7.73983 276.907 7.73983 276.907 8.49279V22.3936C276.907 23.1755 277.023 23.1755 280.169 23.1755V23.3493H270.499V23.1755C273.617 23.1755 273.732 23.1755 273.732 22.3936Z" fill="black"/>
<path d="M284.695 15.4437C284.695 10.5495 287.668 7.24805 292.546 7.24805C297.425 7.24805 300.427 10.5495 300.427 15.4437C300.427 20.338 297.425 23.6684 292.546 23.6684C287.668 23.6684 284.695 20.338 284.695 15.4437ZM292.546 23.4657C296.039 23.4657 297.194 19.7298 297.194 15.4148C297.194 11.0997 296.039 7.39285 292.546 7.39285C289.054 7.39285 287.928 11.0997 287.928 15.4148C287.928 19.7588 289.054 23.4657 292.546 23.4657Z" fill="black"/>
<path d="M20.7105 14.0348L0 30.666L1.06427 32L21.7747 15.3687L20.7105 14.0348Z" fill="black"/>
<path d="M36.3208 23.1182C32.597 22.2494 29.6816 19.3244 28.8156 15.5886C28.7867 15.5017 28.6712 15.5017 28.6712 15.5886C27.8053 19.3244 24.8898 22.2494 21.166 23.1182C21.0794 23.1472 21.0794 23.263 21.166 23.263C24.8898 24.1318 27.8053 27.0568 28.6712 30.7926C28.7001 30.8795 28.8156 30.8795 28.8156 30.7926C29.6816 27.0568 32.597 24.1318 36.3208 23.263C36.3785 23.234 36.3785 23.1182 36.3208 23.1182Z" fill="black"/>
<path d="M21.1514 7.73957C24.8751 8.60837 27.7906 11.5333 28.6566 15.2692C28.6855 15.3561 28.8009 15.3561 28.8009 15.2692C29.6669 11.5333 32.5824 8.60837 36.3061 7.73957C36.3927 7.71061 36.3927 7.59477 36.3061 7.59477C32.5824 6.72597 29.6669 3.801 28.8009 0.0651601C28.7721 -0.02172 28.6566 -0.02172 28.6566 0.0651601C27.7906 3.801 24.8751 6.72597 21.1514 7.59477C21.0648 7.62373 21.0648 7.73957 21.1514 7.73957Z" fill="black"/>
<path d="M5.67562 7.73957C9.39937 8.60837 12.3149 11.5333 13.1808 15.2692C13.2097 15.3561 13.3252 15.3561 13.3252 15.2692C14.1912 11.5333 17.1066 8.60837 20.8304 7.73957C20.917 7.71061 20.917 7.59477 20.8304 7.59477C17.1066 6.72597 14.1912 3.801 13.3252 0.0651601C13.2963 -0.02172 13.1808 -0.02172 13.1808 0.0651601C12.3149 3.801 9.39937 6.72597 5.67562 7.59477C5.61789 7.62373 5.61789 7.73957 5.67562 7.73957Z" fill="black"/>
</svg>
