<svg width="461" height="516" viewBox="0 0 461 516" fill="none" xmlns="http://www.w3.org/2000/svg">
<path fill-rule="evenodd" clip-rule="evenodd" d="M222.595 433.404L290.275 427.169L280.477 444.389L299.548 455.146C300.29 455.564 300.751 456.348 300.756 457.2C300.764 458.512 299.707 459.582 298.395 459.59C276.632 459.721 260.611 459.737 250.334 459.637C238.698 459.524 229.086 459.305 221.498 458.979L222.595 433.404ZM32.2595 373.428L50.0742 416.183L27.6259 424.433L4.2275 453.568C3.71373 454.208 2.90617 454.537 2.09156 454.439C0.789136 454.282 -0.139555 453.099 0.0172709 451.797L8.30201 382.993L32.2595 373.428Z" fill="black"/>
<path fill-rule="evenodd" clip-rule="evenodd" d="M291.228 265.055L356.321 305.371C371.333 314.669 376.236 334.215 367.39 349.498L316.762 436.967L214.563 436.945L313.496 336.908L234.518 307.514L163.791 352.219L63.7947 450.328L24.2432 355.429L119.911 319.984L173.355 286.73L196.811 258.82L291.228 265.055Z" fill="white"/>
<path d="M313.501 337.178L215.567 436.203L316.444 436.225L366.943 348.978C375.668 333.904 370.832 314.624 356.024 305.453L291.026 265.196L196.944 258.983L173.588 286.774L120.084 320.065L120.004 320.105L24.7707 355.389L63.8907 449.252L163.417 351.605L163.491 351.546L234.405 306.723L313.288 336.081L315.462 333.364C315.616 333.172 315.896 333.141 316.088 333.294C316.28 333.448 316.311 333.728 316.158 333.92L314.167 336.409L314.236 336.434L314.143 336.529L316.046 337.718C316.254 337.848 316.318 338.123 316.187 338.332C316.057 338.54 315.782 338.604 315.574 338.473L313.501 337.178ZM172.997 286.093L172.952 286.147L173.057 286.055L172.997 286.093ZM172.997 286.093L196.553 258.064L291.306 264.322L356.493 304.696C371.71 314.12 376.68 333.933 367.714 349.424L316.957 437.115L213.434 437.093L312.633 336.788L234.508 307.711L164.007 352.274L63.5749 450.81L23.5918 354.875L119.652 319.285L172.997 286.093ZM119.652 319.285L119.614 319.309L119.694 319.27L119.652 319.285Z" fill="black"/>
<path fill-rule="evenodd" clip-rule="evenodd" d="M228.518 172.123L273.107 172.641L316.661 176.818L410.821 182.812L386.771 73.5488L426.26 73.8457C448.828 157.489 460.156 200.605 460.242 203.193C460.747 218.271 448.934 230.903 433.856 231.408L302.745 221.707L290.572 262.681L231.487 260.009L228.518 172.123Z" fill="white"/>
<path d="M291.192 263.156L228.07 257.745L228.37 171.673L228.819 171.678L273.446 172.198L316.985 176.374L410.555 182.33L386.512 73.0996L426.898 73.4033L426.986 73.7301C449.628 157.644 460.895 200.532 460.984 203.179C461.497 218.502 449.491 231.34 434.12 231.853L303.366 222.178L291.192 263.156ZM228.964 256.928L290.545 262.206L302.717 221.237L303.074 221.263L434.138 230.964C448.97 230.467 460.591 218.04 460.094 203.209C460.009 200.681 448.651 157.448 426.215 74.2889L387.622 73.9987L411.679 183.294L411.089 183.257L316.915 177.262L273.398 173.086L229.258 172.574L228.964 256.928Z" fill="black"/>
<path fill-rule="evenodd" clip-rule="evenodd" d="M262.365 263.868L291.257 264.647L292.804 258.412L262.365 257.336V263.868Z" fill="black"/>
<path fill-rule="evenodd" clip-rule="evenodd" d="M113.613 122.243L71.8575 262.138C69.1374 271.251 74.0555 280.894 83.0297 284.043L100.846 290.294L191.107 230.021L191.169 172.124L149.539 188.454L172.698 122.243L156.665 83.6445L139.741 91.958L113.613 122.243Z" fill="white"/>
<path d="M173.56 121.797H113.515L71.6643 262.01C68.8761 271.351 73.9173 281.235 83.1158 284.462L101.142 290.787L191.785 230.259L191.849 171.47L150.514 187.684L173.56 121.797ZM114.179 122.688H172.304L149.032 189.222L190.957 172.777L190.895 229.782L101.017 289.8L83.4107 283.622C74.6609 280.552 69.8657 271.15 72.5178 262.265L114.179 122.688Z" fill="black"/>
<path fill-rule="evenodd" clip-rule="evenodd" d="M174.479 137.681L171.245 151.53L105.002 134.712L108 120.461L174.479 137.681Z" fill="white"/>
<path d="M174.893 137.328L171.301 151.733L104.464 135.068L108.055 120.664L174.893 137.328ZM173.813 137.977L108.704 121.744L105.544 134.42L170.652 150.653L173.813 137.977Z" fill="black"/>
<path d="M112.166 129.339C111.671 131.327 112.881 133.342 114.87 133.838C116.859 134.333 118.873 133.123 119.369 131.134C119.865 129.145 118.654 127.131 116.665 126.635C114.677 126.139 112.662 127.35 112.166 129.339ZM113.031 129.554C113.408 128.043 114.938 127.123 116.45 127.5C117.962 127.876 118.881 129.407 118.504 130.919C118.128 132.43 116.597 133.35 115.085 132.973C113.574 132.596 112.654 131.066 113.031 129.554Z" fill="black"/>
<path d="M260.598 252.261L248.751 251.433C246.133 251.25 243.863 253.223 243.68 255.841L243.1 264.134C242.917 266.751 244.891 269.021 247.508 269.204L259.356 270.033C261.973 270.216 264.243 268.242 264.426 265.625L265.006 257.332C265.189 254.715 263.215 252.444 260.598 252.261Z" fill="white"/>
<path d="M248.75 251.302L260.597 252.131C263.214 252.314 265.188 254.584 265.005 257.201L264.425 265.494C264.242 268.111 261.972 270.085 259.355 269.902L247.507 269.073C244.89 268.89 242.916 266.62 243.099 264.003L243.679 255.71C243.862 253.092 246.132 251.119 248.75 251.302ZM248.688 252.191C246.561 252.042 244.717 253.645 244.568 255.772L243.988 264.065C243.839 266.192 245.443 268.036 247.569 268.185L259.417 269.013C261.543 269.162 263.388 267.559 263.536 265.432L264.116 257.139C264.265 255.012 262.662 253.168 260.535 253.019L248.688 252.191Z" fill="black"/>
<path fill-rule="evenodd" clip-rule="evenodd" d="M189.959 369.67L190.522 124.025H191.084V122.8H88.376V91.0793L190.576 0.509766H228.507V91.0793H257.615V122.8H228.507V124.025H228.518V387.087H228.507V459.248H257.615V490.969H228.507V514.759H191.084V490.969H88.376V459.248L189.959 369.67ZM128.224 459.236H190.576L190.279 407.277L128.224 459.236ZM128.162 91.3644H190.513L190.279 39.1081L128.162 91.3644Z" fill="white"/>
<path d="M189.749 369.469L190.312 124.024C190.312 123.778 190.511 123.579 190.757 123.579H190.873V123.245H88.6104C88.3644 123.245 88.165 123.046 88.165 122.8V91.0794C88.165 90.9519 88.2196 90.8306 88.315 90.7461L190.515 0.176504C190.596 0.104313 190.701 0.0644531 190.81 0.0644531H228.742C228.988 0.0644531 229.187 0.26385 229.187 0.509819V90.634H257.849C258.095 90.634 258.295 90.8334 258.295 91.0794V122.8C258.295 123.046 258.095 123.245 257.849 123.245H229.187V123.929C229.194 123.96 229.198 123.992 229.198 124.025V387.087C229.198 387.12 229.194 387.152 229.187 387.183V458.803H257.849C258.095 458.803 258.295 459.002 258.295 459.248V490.969C258.295 491.215 258.095 491.414 257.849 491.414H229.187V514.759C229.187 515.005 228.988 515.204 228.742 515.204H191.318C191.072 515.204 190.873 515.005 190.873 514.759V491.414H88.6104C88.3644 491.414 88.165 491.215 88.165 490.969V459.248C88.165 459.121 88.22 458.999 88.3158 458.914L189.749 369.469ZM190.873 123.579H191.318L190.873 124.025V123.579ZM190.639 369.671C190.639 369.799 190.584 369.92 190.488 370.004L89.0558 459.449V490.523H191.318C191.564 490.523 191.763 490.723 191.763 490.969V514.313H228.297V490.969C228.297 490.723 228.496 490.523 228.742 490.523H257.404V459.694H228.742C228.496 459.694 228.297 459.494 228.297 459.248V387.087C228.297 387.055 228.3 387.023 228.307 386.992V124.12C228.3 124.089 228.297 124.057 228.297 124.025V122.8C228.297 122.554 228.496 122.354 228.742 122.354H257.404V91.5247H228.742C228.496 91.5247 228.297 91.3253 228.297 91.0794V0.955185H190.979L89.0558 91.2798V122.354H191.318C191.564 122.354 191.763 122.554 191.763 122.8V124.025C191.763 124.271 191.564 124.47 191.318 124.47H191.201L190.639 369.671ZM128.459 459.682C128.043 459.682 127.854 459.162 128.173 458.895L190.227 406.936C190.516 406.694 190.956 406.898 190.959 407.275L191.255 459.234C191.257 459.481 191.057 459.682 190.81 459.682H128.459ZM190.362 458.791L190.073 408.226L129.685 458.791H190.362ZM128.396 91.8098C127.981 91.8098 127.792 91.2911 128.11 91.0236L190.226 38.7674C190.515 38.5243 190.957 38.7285 190.959 39.1062L191.193 91.3624C191.194 91.6092 190.994 91.8098 190.748 91.8098H128.396ZM190.3 90.9191L190.072 40.0613L129.618 90.9191H190.3Z" fill="black"/>
<path d="M172.995 332.455C115.619 332.455 88.376 305.852 88.376 257.426C88.376 209.208 115.619 182.812 172.995 182.812C230.165 182.812 257.615 209.416 257.615 257.426C257.615 305.644 230.165 332.455 172.995 332.455ZM172.699 300.983C205.741 300.983 220.798 284.597 220.798 257.427C220.798 230.463 205.741 214.285 172.699 214.285C139.656 214.285 124.599 230.256 124.599 257.427C124.599 284.805 139.656 300.983 172.699 300.983Z" fill="white"/>
<path d="M173.23 332.901C116.636 332.901 88.165 307.034 88.165 257.426C88.165 208.054 116.612 182.367 173.23 182.367C229.633 182.367 258.295 208.253 258.295 257.426C258.295 306.834 229.609 332.901 173.23 332.901ZM173.23 332.01C229.136 332.01 257.404 306.322 257.404 257.426C257.404 208.767 229.16 183.258 173.23 183.258C117.084 183.258 89.0558 208.567 89.0558 257.426C89.0558 306.522 117.11 332.01 173.23 332.01ZM172.933 301.428C140.674 301.428 124.388 286.025 124.388 257.427C124.388 229.064 140.654 213.84 172.933 213.84C205.132 213.84 221.478 229.193 221.478 257.427C221.478 285.896 205.113 301.428 172.933 301.428ZM172.933 300.538C204.631 300.538 220.587 285.393 220.587 257.427C220.587 229.698 204.652 214.73 172.933 214.73C141.133 214.73 125.279 229.57 125.279 257.427C125.279 285.522 141.155 300.538 172.933 300.538Z" fill="black"/>
<path d="M118.135 319.687C98.0912 307.333 88.376 286.243 88.376 257.426C88.376 228.469 98.2703 207.382 118.689 195.156L136.231 225.692C128.355 233.08 124.599 243.856 124.599 257.426C124.599 270.653 128.113 281.265 135.471 288.702L118.135 319.687ZM227.856 319.687L210.519 288.702C217.878 281.265 221.392 270.653 221.392 257.426C221.392 243.856 217.636 233.08 209.76 225.692L227.302 195.156C247.721 207.382 257.615 228.469 257.615 257.426C257.615 286.243 247.9 307.333 227.856 319.687Z" fill="black"/>
<path d="M114.883 261.019C114.389 264.723 111.217 267.581 107.378 267.581C103.539 267.581 100.367 264.723 99.8734 261.019L99.3794 261.512C99.2055 261.686 98.9235 261.686 98.7496 261.512C98.5757 261.339 98.5757 261.057 98.7496 260.883L100.252 259.38L101.755 260.883C101.929 261.057 101.929 261.339 101.755 261.512C101.581 261.686 101.299 261.686 101.125 261.512L100.801 261.189C101.333 264.174 103.846 266.473 106.933 266.676V253.888C106.838 253.873 106.743 253.853 106.648 253.827C105.143 253.424 104.25 251.877 104.653 250.373C105.057 248.868 106.603 247.975 108.108 248.378C109.613 248.781 110.506 250.328 110.103 251.833C109.805 252.941 108.888 253.718 107.823 253.889V266.676C110.91 266.473 113.423 264.174 113.955 261.189L113.631 261.512C113.457 261.686 113.175 261.686 113.001 261.512C112.827 261.339 112.827 261.057 113.001 260.883L114.504 259.38L116.006 260.883C116.18 261.057 116.18 261.339 116.006 261.512C115.832 261.686 115.55 261.686 115.377 261.512L114.883 261.019ZM106.878 252.967C107.908 253.243 108.966 252.632 109.242 251.602C109.518 250.573 108.907 249.514 107.877 249.238C106.848 248.963 105.79 249.574 105.514 250.603C105.238 251.633 105.849 252.691 106.878 252.967Z" fill="white"/>
<path d="M239.059 266.676V253.888C239.153 253.873 239.248 253.853 239.343 253.827C240.848 253.424 241.741 251.877 241.338 250.373C240.935 248.868 239.388 247.975 237.883 248.378C236.378 248.781 235.485 250.328 235.889 251.833C236.186 252.941 237.103 253.718 238.168 253.889V266.676C235.082 266.473 232.568 264.174 232.036 261.189L232.36 261.512C232.534 261.686 232.816 261.686 232.99 261.512C233.164 261.339 233.164 261.057 232.99 260.883L231.487 259.38L229.985 260.883C229.811 261.057 229.811 261.339 229.985 261.512C230.159 261.686 230.441 261.686 230.615 261.512L231.109 261.019C231.602 264.723 234.774 267.581 238.613 267.581C242.453 267.581 245.625 264.723 246.118 261.019L246.612 261.512C246.786 261.686 247.068 261.686 247.242 261.512C247.416 261.339 247.416 261.057 247.242 260.883L245.739 259.38L244.236 260.883C244.063 261.057 244.063 261.339 244.236 261.512C244.41 261.686 244.692 261.686 244.866 261.512L245.19 261.189C244.659 264.174 242.145 266.473 239.059 266.676ZM239.113 252.967C238.083 253.243 237.025 252.632 236.749 251.602C236.473 250.573 237.084 249.514 238.114 249.238C239.143 248.963 240.201 249.574 240.477 250.603C240.753 251.633 240.142 252.691 239.113 252.967Z" fill="white"/>
<path fill-rule="evenodd" clip-rule="evenodd" d="M353.814 83.6444L314.371 91.2063C318.68 95.9699 324.187 98.4728 330.891 98.7152C337.595 98.9576 346.764 98.1837 358.398 96.3935L353.814 83.6444Z" fill="white"/>
<path d="M344.13 84.3308L343.911 83.4674L313.433 91.1992L313.929 91.7478C318.32 96.6016 323.941 99.1563 330.764 99.4029C337.5 99.6465 346.695 98.8704 358.354 97.0763L358.219 96.1959C346.61 97.9822 337.467 98.754 330.796 98.5128C324.472 98.2841 319.247 96.0144 315.098 91.6956L344.13 84.3308Z" fill="black"/>
<mask id="mask0" mask-type="alpha" maskUnits="userSpaceOnUse" x="238" y="73" width="84" height="100">
<path d="M273.351 172.123L279.289 148.37L290.44 149.929C299.866 151.247 308.812 145.387 311.372 136.22L320.246 104.444C323.862 91.4928 316.295 78.0624 303.344 74.4459C301.213 73.8506 299.01 73.5488 296.796 73.5488H276.817C269.527 73.5488 263.155 78.4663 261.307 85.5178L238.612 172.123H273.351Z" fill="white"/>
</mask>
<g mask="url(#mask0)">
<path d="M273.351 172.123L279.289 148.37L290.44 149.929C299.866 151.247 308.812 145.387 311.372 136.22L320.246 104.444C323.862 91.4928 316.295 78.0624 303.344 74.4459C301.213 73.8506 299.01 73.5488 296.796 73.5488H276.817C269.527 73.5488 263.155 78.4663 261.307 85.5178L238.612 172.123H273.351Z" fill="white"/>
<mask id="mask1" mask-type="alpha" maskUnits="userSpaceOnUse" x="238" y="73" width="84" height="100">
<path d="M273.351 172.123L279.289 148.37L290.44 149.929C299.866 151.247 308.812 145.387 311.372 136.22L320.246 104.444C323.862 91.4928 316.295 78.0624 303.344 74.4459C301.213 73.8506 299.01 73.5488 296.796 73.5488H276.817C269.527 73.5488 263.155 78.4663 261.307 85.5178L238.612 172.123H273.351Z" fill="white"/>
</mask>
<g mask="url(#mask1)">
<path d="M273.351 172.123L279.289 148.37L290.44 149.929C299.866 151.247 308.812 145.387 311.372 136.22L320.246 104.444C323.862 91.4928 316.295 78.0624 303.344 74.4459C301.213 73.8506 299.01 73.5488 296.796 73.5488H276.817C269.527 73.5488 263.155 78.4663 261.307 85.5178L238.612 172.123H273.351Z" fill="white"/>
<path fill-rule="evenodd" clip-rule="evenodd" d="M316.322 108.965L319.372 108.585L318.974 114.74C318.915 115.651 318.129 116.341 317.218 116.282C317.177 116.28 317.135 116.276 317.094 116.27C316.12 116.133 315.441 115.232 315.578 114.258L316.322 108.965Z" fill="black"/>
</g>
<path d="M290.377 150.37C300.024 151.719 309.18 145.722 311.8 136.34L320.674 104.563C324.356 91.3758 316.651 77.6997 303.463 74.017C301.292 73.4109 299.049 73.1035 296.795 73.1035H276.816C269.323 73.1035 262.774 78.1576 260.875 85.4049L238.034 172.569H273.698L279.623 148.867L290.377 150.37ZM273.002 171.678H239.188L261.737 85.6307C263.533 78.7751 269.728 73.9942 276.816 73.9942H296.795C298.968 73.9942 301.131 74.2905 303.224 74.8749C315.938 78.4253 323.366 91.61 319.816 104.324L310.942 136.101C308.443 145.053 299.705 150.775 290.5 149.488L278.953 147.874L273.002 171.678Z" fill="black"/>
</g>
<mask id="mask2" mask-type="alpha" maskUnits="userSpaceOnUse" x="245" y="73" width="56" height="50">
<path d="M284.92 105.605L283.223 103.908C279.562 100.248 273.637 100.214 269.936 103.834C266.415 107.276 266.352 112.92 269.794 116.44C269.891 116.54 269.991 116.637 270.093 116.732L271.3 117.856C264.922 120.601 256.203 122.261 245.144 122.836L260.897 82.6042C263.036 77.1425 268.302 73.5488 274.168 73.5488H300.072C294.573 87.8005 289.522 98.486 284.92 105.605Z" fill="white"/>
</mask>
<g mask="url(#mask2)">
<path d="M284.92 105.605L283.223 103.908C279.562 100.248 273.637 100.214 269.936 103.834C266.415 107.276 266.352 112.92 269.794 116.44C269.891 116.54 269.991 116.637 270.093 116.732L271.3 117.856C264.922 120.601 256.203 122.261 245.144 122.836L260.897 82.6042C263.036 77.1425 268.302 73.5488 274.168 73.5488H300.072C294.573 87.8005 289.522 98.486 284.92 105.605Z" fill="black"/>
</g>
<path fill-rule="evenodd" clip-rule="evenodd" d="M276.617 61.3765L292.057 48.9062L303.042 61.3765" fill="white"/>
<path fill-rule="evenodd" clip-rule="evenodd" d="M262.365 61.377C262.365 61.377 265.631 65.4347 272.163 73.5503H305.714L317.591 61.377C280.774 61.377 262.365 61.377 262.365 61.377Z" fill="white"/>
<path d="M292.004 49.8171L302.708 61.9671L303.376 61.3783L292.108 48.5879L276.337 61.3262L276.897 62.0192L292.004 49.8171Z" fill="black"/>
<path d="M262.018 61.9531L271.816 74.1265C271.901 74.2315 272.028 74.2926 272.163 74.2926H305.714C305.834 74.2926 305.949 74.2441 306.033 74.1582L317.909 61.9849C318.185 61.7028 317.985 61.2285 317.59 61.2285H262.365C261.991 61.2285 261.784 61.6617 262.018 61.9531ZM316.534 62.1192L305.526 73.4018H272.376L263.295 62.1192H316.534Z" fill="black"/>
<path fill-rule="evenodd" clip-rule="evenodd" d="M314.622 109.773L315.513 129.963L306.309 123.134" fill="white"/>
<path fill-rule="evenodd" clip-rule="evenodd" d="M241.285 158.465H263.319L263.912 172.471L271.929 158.465H279.289L274.539 172.717L236.831 172.42L241.285 158.465Z" fill="white"/>
<path d="M303.777 108.566L303.074 113.567C302.937 114.541 302.036 115.22 301.062 115.083C300.088 114.946 299.409 114.045 299.546 113.071L300.271 107.911L291.084 106.196C290.843 106.151 290.683 105.918 290.728 105.676C290.773 105.434 291.006 105.275 291.248 105.32L306.39 108.148C306.632 108.193 306.792 108.425 306.746 108.667C306.701 108.909 306.469 109.068 306.227 109.023L303.777 108.566ZM314.689 109.036L319.288 108.148C319.53 108.101 319.763 108.259 319.81 108.501C319.857 108.742 319.699 108.976 319.457 109.023L315.085 109.867L315.958 129.646C315.974 130.021 315.549 130.247 315.247 130.024L313.884 129.012L315.513 134.713C313.46 134.154 311.796 132.649 311.032 130.663L310.762 129.963C307.062 131.716 302.977 132.498 298.891 132.237L291.166 131.744L307.405 124.205L306.043 123.195C305.846 123.048 305.804 122.769 305.951 122.572C306.097 122.374 306.376 122.333 306.574 122.479L315.027 128.751L314.177 109.496C314.166 109.25 314.357 109.042 314.602 109.031C314.632 109.03 314.661 109.031 314.689 109.036Z" fill="black"/>
<path d="M264.127 173.08L257.926 195.275C257.86 195.512 257.614 195.651 257.377 195.584C257.14 195.518 257.002 195.272 257.068 195.036L263.204 173.073L236.827 172.865C236.527 172.863 236.315 172.57 236.406 172.284L240.86 158.329C240.919 158.145 241.09 158.02 241.284 158.02H263.318C263.557 158.02 263.753 158.208 263.763 158.446L264.291 170.911L271.542 158.244C271.621 158.105 271.769 158.02 271.928 158.02H279.289C279.593 158.02 279.807 158.317 279.711 158.606L274.961 172.857C274.9 173.041 274.728 173.163 274.535 173.162L264.127 173.08ZM237.439 171.979L263.454 172.184L262.891 158.91H241.609L237.439 171.979ZM274.218 172.269L278.671 158.91H272.187L264.584 172.193L274.218 172.269Z" fill="black"/>
<path fill-rule="evenodd" clip-rule="evenodd" d="M319.79 91.3635H354.705C356.486 99.2811 363.414 103.24 375.489 103.24C377.874 103.24 380.827 102.371 384.346 100.632L393.303 100.568V73.5488H299.776C300.961 83.705 309.565 91.3635 319.79 91.3635Z" fill="white"/>
<path d="M375.425 103.685C377.869 103.685 380.853 102.813 384.388 101.077L393.685 101.01V73.1035H299.213L299.271 73.6005C300.482 83.9811 309.276 91.8089 319.727 91.8089H354.289C356.247 99.7309 363.34 103.685 375.425 103.685ZM392.795 73.9942V100.126L384.178 100.187L384.086 100.233C380.622 101.944 377.732 102.795 375.425 102.795C363.538 102.795 356.804 98.947 355.076 91.2657L354.998 90.9181H319.727C309.896 90.9181 301.597 83.6777 300.22 73.9942H392.795Z" fill="black"/>
<path d="M299.455 73.911C305.144 77.9748 311.952 77.9748 319.81 73.9449L319.404 73.1523C311.823 77.0401 305.368 77.0401 299.973 73.1862L299.455 73.911Z" fill="black"/>
<path d="M407.258 72.3613H393.006V126.399H407.258V72.3613Z" fill="white"/>
<path d="M392.646 72.3613H407.492V126.399H392.646V72.3613ZM393.537 125.508H406.601V73.2521H393.537V125.508Z" fill="black"/>
<path d="M400.07 120.313C402.12 120.313 403.781 118.652 403.781 116.602C403.781 114.552 402.12 112.891 400.07 112.891C398.02 112.891 396.358 114.552 396.358 116.602C396.358 118.652 398.02 120.313 400.07 120.313ZM400.07 119.423C398.512 119.423 397.249 118.16 397.249 116.602C397.249 115.044 398.512 113.781 400.07 113.781C401.628 113.781 402.89 115.044 402.89 116.602C402.89 118.16 401.628 119.423 400.07 119.423Z" fill="black"/>
<path d="M228.814 90.6211L88.9688 90.918L88.9706 91.8087L228.815 91.5118L228.814 90.6211Z" fill="black"/>
<path d="M228.815 122.539L190.748 123.133" stroke="black" stroke-width="1.5"/>
<path d="M216.493 491.451H203.726V514.165C203.726 514.411 203.527 514.61 203.281 514.61C203.035 514.61 202.835 514.411 202.835 514.165V491.451H191.107V490.561H229.112V491.451H217.384V514.165C217.384 514.411 217.185 514.61 216.939 514.61C216.693 514.61 216.493 514.411 216.493 514.165V491.451Z" fill="black"/>
<path d="M257.498 458.791H88.9698C88.7238 458.791 88.5244 458.99 88.5244 459.236C88.5244 459.482 88.7238 459.682 88.9698 459.682H257.498C257.744 459.682 257.943 459.482 257.943 459.236C257.943 458.99 257.744 458.791 257.498 458.791Z" fill="black"/>
<path fill-rule="evenodd" clip-rule="evenodd" d="M158.447 82.457H163.197C165.821 82.457 167.948 84.5839 167.948 87.2076V121.649C167.948 125.585 164.758 128.775 160.822 128.775C156.887 128.775 153.696 125.585 153.696 121.649V87.2076C153.696 84.5839 155.823 82.457 158.447 82.457Z" fill="white"/>
<path fill-rule="evenodd" clip-rule="evenodd" d="M172.699 82.457H177.449C180.073 82.457 182.2 84.5839 182.2 87.2076V121.649C182.2 125.585 179.01 128.775 175.074 128.775C171.139 128.775 167.948 125.585 167.948 121.649V87.2076C167.948 84.5839 170.075 82.457 172.699 82.457Z" fill="white"/>
<path fill-rule="evenodd" clip-rule="evenodd" d="M186.951 82.457H191.701C194.325 82.457 196.452 84.5839 196.452 87.2076V121.649C196.452 125.585 193.262 128.775 189.326 128.775C185.391 128.775 182.2 125.585 182.2 121.649V87.2076C182.2 84.5839 184.327 82.457 186.951 82.457Z" fill="white"/>
<path d="M182.137 123.438C181.236 126.522 178.387 128.775 175.011 128.775C171.636 128.775 168.787 126.522 167.886 123.438C166.984 126.522 164.135 128.775 160.76 128.775C156.66 128.775 153.337 125.452 153.337 121.352V87.2076C153.337 84.5839 155.464 82.457 158.087 82.457H163.432C165.473 82.457 167.213 83.7441 167.886 85.5508C168.558 83.7441 170.298 82.457 172.339 82.457H177.684C179.725 82.457 181.465 83.7441 182.137 85.5508C182.81 83.7441 184.55 82.457 186.591 82.457H191.935C194.559 82.457 196.686 84.5839 196.686 87.2076V121.352C196.686 125.452 193.363 128.775 189.263 128.775C185.888 128.775 183.038 126.522 182.137 123.438ZM158.087 83.3478C155.956 83.3478 154.228 85.0759 154.228 87.2076V121.352C154.228 124.96 157.152 127.884 160.76 127.884C164.367 127.884 167.292 124.96 167.292 121.352V87.2076C167.292 85.0759 165.564 83.3478 163.432 83.3478H158.087ZM172.339 83.3478C170.207 83.3478 168.479 85.0759 168.479 87.2076V121.352C168.479 124.96 171.404 127.884 175.011 127.884C178.619 127.884 181.543 124.96 181.543 121.352V87.2076C181.543 85.0759 179.815 83.3478 177.684 83.3478H172.339ZM186.591 83.3478C184.459 83.3478 182.731 85.0759 182.731 87.2076V121.352C182.731 124.96 185.656 127.884 189.263 127.884C192.871 127.884 195.795 124.96 195.795 121.352V87.2076C195.795 85.0759 194.067 83.3478 191.935 83.3478H186.591Z" fill="black"/>
<path d="M154.908 83.5469L140.953 90.9696L141.371 91.756L155.326 84.3333L154.908 83.5469Z" fill="black"/>
<path fill-rule="evenodd" clip-rule="evenodd" d="M115.584 194.167C117.288 193.184 119.467 193.767 120.451 195.472L137.375 224.785C138.359 226.489 137.775 228.668 136.071 229.652C134.367 230.635 132.187 230.052 131.204 228.347L114.28 199.034C113.296 197.33 113.88 195.151 115.584 194.167ZM115.584 321.317C114.164 320.497 113.677 318.682 114.497 317.261L132.015 286.92C132.835 285.5 134.651 285.013 136.071 285.833C137.491 286.653 137.977 288.469 137.157 289.889L119.64 320.231C118.82 321.651 117.004 322.137 115.584 321.317ZM230.38 194.236C231.942 195.138 232.477 197.136 231.576 198.698L214.949 227.497C214.047 229.059 212.049 229.594 210.487 228.692C208.925 227.79 208.39 225.793 209.292 224.231L225.919 195.432C226.821 193.87 228.818 193.334 230.38 194.236ZM230.34 320.586C228.636 321.57 226.457 320.986 225.473 319.282L208.846 290.483C207.862 288.779 208.446 286.6 210.15 285.616C211.855 284.632 214.034 285.216 215.017 286.92L231.644 315.719C232.628 317.423 232.044 319.602 230.34 320.586Z" fill="white"/>
<path d="M115.691 193.91C117.537 192.844 119.898 193.477 120.964 195.323L137.888 224.636C138.954 226.482 138.321 228.843 136.475 229.909C134.629 230.975 132.268 230.342 131.202 228.496L114.279 199.183C113.213 197.337 113.845 194.976 115.691 193.91ZM115.05 198.738L131.974 228.051C132.794 229.471 134.61 229.957 136.03 229.137C137.45 228.318 137.936 226.502 137.116 225.082L120.193 195.768C119.373 194.348 117.557 193.862 116.137 194.682C114.717 195.502 114.23 197.318 115.05 198.738ZM115.691 321.357C113.845 320.291 113.213 317.931 114.279 316.085L131.202 286.772C132.268 284.925 134.629 284.293 136.475 285.359C138.321 286.425 138.954 288.785 137.888 290.631L120.964 319.944C119.898 321.791 117.537 322.423 115.691 321.357ZM116.137 320.586C117.557 321.406 119.373 320.919 120.193 319.499L137.116 290.186C137.936 288.766 137.45 286.95 136.03 286.13C134.61 285.31 132.794 285.797 131.974 287.217L115.05 316.53C114.23 317.95 114.717 319.766 116.137 320.586ZM231.042 193.91C232.888 194.976 233.52 197.337 232.454 199.183L215.531 228.496C214.465 230.342 212.104 230.975 210.258 229.909C208.412 228.843 207.779 226.482 208.845 224.636L225.769 195.323C226.835 193.477 229.196 192.844 231.042 193.91ZM226.54 195.768L209.617 225.082C208.797 226.502 209.283 228.318 210.703 229.137C212.123 229.957 213.939 229.471 214.759 228.051L231.683 198.738C232.503 197.318 232.016 195.502 230.596 194.682C229.176 193.862 227.36 194.348 226.54 195.768ZM231.042 321.357C229.196 322.423 226.835 321.791 225.769 319.944L208.845 290.631C207.779 288.785 208.412 286.425 210.258 285.359C212.104 284.293 214.465 284.925 215.531 286.772L232.454 316.085C233.52 317.931 232.888 320.291 231.042 321.357ZM230.596 320.586C232.016 319.766 232.503 317.95 231.683 316.53L214.759 287.217C213.939 285.797 212.123 285.31 210.703 286.13C209.283 286.95 208.797 288.766 209.617 290.186L226.54 319.499C227.36 320.919 229.176 321.406 230.596 320.586Z" fill="black"/>
<path d="M155.487 121.081C155.309 121.251 155.027 121.243 154.858 121.065C154.688 120.887 154.696 120.605 154.874 120.435C159.011 116.505 162.87 116.505 166.21 120.471C166.369 120.659 166.345 120.94 166.156 121.099C165.968 121.257 165.687 121.233 165.529 121.045C162.535 117.49 159.268 117.49 155.487 121.081ZM170.036 121.081C169.858 121.251 169.576 121.243 169.406 121.065C169.237 120.887 169.244 120.605 169.423 120.435C173.56 116.505 177.419 116.505 180.759 120.471C180.917 120.659 180.893 120.94 180.705 121.099C180.517 121.257 180.236 121.233 180.077 121.045C177.083 117.49 173.817 117.49 170.036 121.081ZM184.288 121.081C184.109 121.251 183.828 121.243 183.658 121.065C183.489 120.887 183.496 120.605 183.674 120.435C187.811 116.505 191.671 116.505 195.01 120.471C195.169 120.659 195.145 120.94 194.957 121.099C194.769 121.257 194.488 121.233 194.329 121.045C191.335 117.49 188.068 117.49 184.288 121.081Z" fill="black"/>
<path d="M190.217 369.568L190.482 409.057" stroke="black" stroke-width="1.5" stroke-linejoin="round"/>
<path d="M190.303 0.803521L191.193 0.808931L190.959 39.4073L190.068 39.4019L190.303 0.803521ZM202.835 0.0639498C202.835 -0.182019 203.035 0.36086 203.281 0.36086C203.527 0.36086 203.726 0.560257 203.726 0.806226L203.578 91.067C203.578 91.313 203.527 91.3639 203.281 91.3639C203.035 91.3639 202.687 91.313 202.687 91.067L202.835 0.0639498ZM216.79 0.806226C216.79 0.560257 216.99 0.36086 217.236 0.36086C217.482 0.36086 217.681 0.560257 217.681 0.806226L217.533 91.067C217.533 91.313 217.333 91.5124 217.087 91.5124C216.841 91.5124 216.642 91.313 216.642 91.067L216.79 0.806226Z" fill="black"/>
</svg>
